<?xml version="1.0" encoding="UTF-8" standalone="no"?>
<!DOCTYPE svg PUBLIC "-//W3C//DTD SVG 1.1//EN" "http://www.w3.org/Graphics/SVG/1.1/DTD/svg11.dtd">
<svg xmlns="http://www.w3.org/2000/svg" version="1.1" viewBox="0.00 0.00 1448.00 1448.00">
<g stroke-width="2.00" fill="none" stroke-linecap="butt">
<path stroke="#88a6e1" vector-effect="non-scaling-stroke" d="
  M 1287.80 818.65
  L 1246.32 818.65
  A 1.11 1.11 0.0 0 0 1245.23 819.54
  Q 1232.07 883.92 1206.44 941.50
  Q 1196.74 963.30 1187.24 980.01
  Q 1176.60 998.70 1174.69 1001.70
  Q 1158.27 1027.36 1148.56 1040.30
  Q 1125.77 1070.66 1095.04 1101.99
  C 1092.85 1104.23 1090.34 1105.98 1088.30 1108.36
  Q 1086.56 1110.39 1083.35 1113.27
  Q 1055.19 1138.45 1040.55 1149.28
  Q 1020.64 1164.02 1005.28 1173.77
  Q 959.73 1202.70 904.60 1224.35
  C 898.71 1226.66 893.44 1227.88 887.59 1230.08
  Q 881.60 1232.32 874.77 1234.06
  Q 872.10 1234.74 864.10 1237.39
  Q 861.13 1238.38 853.36 1240.43
  Q 833.88 1245.57 815.72 1248.90
  C 808.53 1250.21 800.98 1250.95 794.86 1252.09
  Q 788.16 1253.34 779.21 1254.26
  Q 752.70 1256.98 730.56 1257.09
  C 716.68 1257.16 694.97 1257.39 678.33 1255.92
  Q 637.47 1252.32 595.83 1242.41
  C 585.71 1240.00 575.03 1236.72 564.04 1233.42
  Q 530.74 1223.45 497.60 1207.87
  Q 445.66 1183.46 399.29 1148.45
  Q 375.35 1130.37 346.10 1102.32
  C 340.39 1096.84 334.82 1090.37 329.20 1084.63
  Q 323.56 1078.88 316.95 1070.84
  Q 297.18 1046.78 294.89 1043.62
  Q 281.07 1024.61 277.74 1019.50
  Q 268.76 1005.72 257.90 987.76
  C 251.90 977.85 248.43 970.00 242.41 958.22
  C 233.19 940.15 226.59 923.38 218.55 902.66
  C 215.04 893.63 213.02 886.45 209.32 874.71
  Q 196.49 833.96 191.93 791.80
  Q 190.92 782.47 189.69 767.75
  Q 185.75 720.60 189.91 674.17
  Q 191.87 652.31 192.45 647.33
  Q 193.73 636.19 196.44 620.67
  Q 199.25 604.57 203.13 592.38
  Q 206.67 581.26 208.70 573.26
  Q 211.46 562.41 216.21 549.41
  C 222.87 531.17 229.72 513.98 238.40 496.70
  C 247.91 477.78 256.32 461.39 267.10 444.36
  Q 275.32 431.36 291.70 408.19
  Q 301.91 393.74 323.65 369.15
  Q 332.66 358.95 350.10 341.62
  Q 363.70 328.10 378.36 315.93
  Q 397.55 300.00 414.91 288.16
  Q 434.12 275.06 456.14 261.94
  C 461.73 258.61 468.47 255.37 474.28 252.02
  Q 475.43 251.36 480.06 249.26
  C 489.16 245.16 495.66 240.98 503.94 237.53
  C 514.64 233.08 531.73 225.08 546.18 220.64
  Q 562.45 215.65 574.30 211.90
  C 598.06 204.39 620.15 200.46 646.38 196.11
  C 652.31 195.13 659.45 194.98 665.52 194.04
  Q 676.09 192.40 679.88 192.13
  Q 712.87 189.78 749.00 191.60
  Q 762.63 192.29 773.37 193.92
  C 780.52 195.01 787.40 195.09 794.49 196.29
  Q 811.90 199.23 828.87 202.75
  C 839.53 204.97 848.38 207.61 859.41 210.37
  C 867.08 212.29 874.97 215.16 882.63 217.47
  C 901.93 223.28 920.51 230.73 939.41 239.13
  C 946.19 242.14 951.32 245.19 956.96 247.74
  Q 963.86 250.87 970.07 254.30
  Q 1011.25 277.06 1040.31 298.79
  Q 1045.70 302.82 1070.00 323.04
  C 1076.18 328.19 1081.03 333.27 1086.90 338.64
  Q 1103.09 353.45 1116.33 368.54
  C 1122.74 375.85 1131.32 385.62 1137.96 394.16
  Q 1162.53 425.81 1182.35 460.16
  Q 1194.00 480.35 1200.27 492.76
  Q 1206.01 504.12 1214.19 523.36
  C 1219.89 536.75 1224.20 549.81 1228.51 562.00
  C 1230.88 568.69 1232.07 575.49 1234.21 581.62
  Q 1236.77 588.97 1238.44 596.31
  Q 1241.26 608.69 1241.91 612.14
  C 1242.85 617.17 1245.22 623.07 1245.58 628.97
  A 1.26 1.25 -1.7 0 0 1246.84 630.15
  L 1288.21 630.15
  A 0.75 0.75 0.0 0 0 1288.89 629.07
  C 1287.84 626.88 1287.80 623.93 1287.22 621.11
  Q 1281.53 593.42 1273.91 565.29
  C 1267.39 541.19 1258.37 517.67 1249.48 497.01
  Q 1229.56 450.75 1202.23 408.96
  C 1194.47 397.09 1184.07 382.73 1177.05 373.20
  Q 1171.45 365.62 1160.28 351.95
  C 1154.05 344.33 1147.86 338.07 1141.80 331.37
  Q 1135.73 324.66 1127.42 316.42
  Q 1107.50 296.67 1086.20 279.09
  Q 1082.04 275.66 1062.53 261.07
  Q 1054.39 254.98 1046.30 249.71
  Q 1042.46 247.22 1029.70 238.86
  Q 1004.88 222.61 971.58 206.21
  Q 946.41 193.81 907.70 179.81
  Q 894.90 175.18 858.93 165.82
  C 849.92 163.48 841.52 162.25 831.50 160.11
  C 817.39 157.09 797.31 154.92 786.94 153.10
  Q 779.80 151.84 773.38 151.64
  Q 771.64 151.59 759.74 150.65
  Q 747.44 149.67 739.26 149.49
  Q 691.25 148.45 654.79 152.92
  C 639.30 154.81 617.41 159.16 596.27 163.27
  Q 588.94 164.69 580.63 166.89
  Q 565.82 170.81 543.53 177.10
  C 527.37 181.65 509.17 189.09 497.79 193.82
  Q 497.54 193.92 473.08 205.01
  Q 460.04 210.92 448.73 217.02
  Q 427.66 228.38 412.26 238.29
  Q 390.27 252.43 385.29 256.05
  Q 368.05 268.59 354.90 279.22
  Q 340.39 290.94 326.18 304.41
  C 296.11 332.94 269.34 363.48 246.13 397.50
  Q 231.08 419.57 221.66 436.15
  Q 211.60 453.88 204.51 468.44
  Q 196.17 485.55 187.00 507.29
  Q 182.15 518.78 178.11 530.01
  Q 171.35 548.76 170.11 553.09
  Q 156.64 600.10 150.52 639.76
  Q 144.05 681.66 144.64 722.99
  Q 144.98 746.80 146.89 772.60
  Q 147.84 785.32 149.74 796.91
  Q 153.07 817.27 153.61 821.08
  Q 154.68 828.67 157.35 839.41
  Q 158.09 842.41 160.97 857.76
  Q 162.76 867.29 169.06 889.73
  C 170.61 895.24 173.07 901.10 175.10 907.85
  Q 179.75 923.28 185.75 937.07
  C 189.65 946.04 192.59 954.36 196.29 961.91
  Q 210.30 990.55 213.27 996.50
  Q 219.56 1009.06 237.66 1038.45
  Q 257.16 1070.10 285.79 1102.62
  Q 297.66 1116.10 316.04 1134.52
  Q 341.08 1159.61 366.83 1179.67
  Q 377.38 1187.88 398.10 1202.23
  Q 412.82 1212.42 429.60 1221.86
  Q 452.38 1234.68 462.07 1239.40
  Q 487.62 1251.83 514.26 1262.28
  Q 540.45 1272.55 563.36 1278.64
  Q 590.98 1285.98 613.74 1290.47
  Q 636.61 1294.97 663.25 1297.40
  Q 696.12 1300.38 729.00 1299.74
  C 736.80 1299.59 751.45 1299.22 763.99 1298.24
  Q 772.23 1297.59 780.24 1296.93
  C 795.60 1295.68 812.96 1293.02 829.61 1289.51
  Q 845.69 1286.11 850.86 1284.79
  Q 863.08 1281.67 866.81 1280.79
  C 878.04 1278.16 886.64 1275.20 900.38 1271.10
  C 918.21 1265.78 936.40 1258.21 954.16 1250.58
  Q 1024.87 1220.20 1084.47 1171.18
  Q 1105.64 1153.77 1120.12 1139.60
  Q 1181.11 1079.93 1222.24 1006.30
  Q 1234.34 984.64 1243.53 963.83
  C 1252.83 942.79 1257.60 932.81 1263.11 915.88
  C 1264.31 912.18 1266.06 908.19 1267.20 904.72
  Q 1269.33 898.29 1278.56 861.73
  C 1280.26 855.02 1282.58 848.39 1283.66 842.92
  Q 1287.28 824.63 1288.48 819.51
  A 0.70 0.70 0.0 0 0 1287.80 818.65"
/>
<path stroke="#88a6e1" vector-effect="non-scaling-stroke" d="
  M 1195.07 629.12
  C 1194.15 627.07 1194.01 624.27 1193.59 622.41
  Q 1189.70 605.23 1188.14 599.61
  Q 1183.32 582.16 1174.48 556.87
  Q 1171.32 547.85 1166.83 537.22
  Q 1160.84 523.03 1158.28 517.92
  C 1153.44 508.26 1145.86 492.80 1138.90 480.85
  Q 1121.13 450.30 1101.93 426.05
  Q 1070.25 386.02 1028.73 351.25
  C 1015.42 340.10 999.51 328.80 986.59 319.92
  C 971.41 309.50 955.78 300.84 939.22 292.33
  C 898.30 271.32 853.93 256.86 808.50 248.04
  Q 796.95 245.80 793.28 245.23
  Q 778.79 242.97 751.02 241.20
  Q 743.73 240.73 711.17 240.77
  Q 692.86 240.79 680.37 241.79
  Q 658.35 243.56 649.75 245.02
  Q 627.83 248.76 594.99 256.97
  Q 582.75 260.03 568.10 265.02
  Q 546.94 272.21 541.62 274.38
  Q 489.18 295.71 444.81 326.82
  Q 435.63 333.26 420.08 344.95
  C 411.53 351.38 401.63 360.29 394.77 366.27
  Q 390.95 369.61 370.14 390.65
  Q 356.51 404.43 345.40 418.64
  C 331.04 436.99 317.12 455.82 305.31 475.91
  Q 296.83 490.33 291.61 500.08
  Q 276.01 529.19 264.97 561.21
  Q 258.25 580.70 253.29 598.51
  Q 241.37 641.33 237.80 685.26
  C 236.32 703.46 236.55 724.92 236.83 741.74
  C 237.18 762.39 239.50 782.04 242.88 801.87
  C 245.14 815.15 248.30 827.34 251.02 840.69
  C 252.92 850.00 256.01 859.20 258.95 869.06
  Q 270.84 908.89 290.55 946.47
  Q 293.39 951.88 303.42 969.35
  C 306.79 975.22 310.13 980.15 313.48 985.46
  Q 317.16 991.30 321.36 997.31
  Q 328.21 1007.14 332.10 1012.42
  Q 345.54 1030.67 364.80 1052.21
  Q 387.27 1077.32 418.14 1101.71
  Q 434.11 1114.34 442.41 1120.21
  Q 463.85 1135.39 480.95 1145.05
  Q 494.25 1152.57 515.48 1162.71
  C 536.20 1172.62 557.67 1180.56 577.73 1186.51
  Q 598.61 1192.70 625.59 1198.64
  Q 647.92 1203.56 668.01 1205.37
  Q 696.01 1207.89 726.25 1207.63
  Q 750.72 1207.43 770.17 1205.33
  C 776.89 1204.61 790.00 1203.34 799.91 1201.47
  Q 828.06 1196.17 850.31 1190.06
  Q 882.45 1181.24 913.87 1167.83
  C 929.75 1161.05 945.41 1152.59 959.04 1145.03
  Q 976.70 1135.25 997.82 1120.29
  Q 1005.49 1114.87 1020.20 1103.43
  C 1043.77 1085.11 1065.56 1063.67 1085.08 1041.35
  Q 1129.12 990.99 1157.40 931.10
  C 1162.77 919.72 1166.88 910.92 1170.97 900.24
  Q 1185.94 861.19 1195.25 819.56
  A 0.75 0.74 6.5 0 0 1194.52 818.65
  L 1151.46 818.65
  A 0.95 0.94 6.0 0 0 1150.53 819.39
  Q 1144.87 844.91 1137.07 868.54
  Q 1132.10 883.59 1125.75 897.86
  Q 1119.74 911.38 1112.20 926.23
  C 1106.91 936.65 1100.65 946.51 1095.51 955.02
  Q 1084.46 973.31 1072.17 988.93
  C 1060.58 1003.64 1048.42 1018.41 1034.71 1032.20
  Q 1020.99 1046.00 1016.52 1050.02
  Q 998.94 1065.86 981.00 1079.25
  C 964.50 1091.57 945.11 1103.34 927.15 1113.37
  Q 914.69 1120.34 892.50 1130.05
  Q 881.96 1134.66 868.24 1139.47
  Q 848.94 1146.24 843.62 1147.87
  Q 832.80 1151.18 809.43 1156.42
  Q 798.28 1158.92 786.07 1160.60
  Q 763.30 1163.75 762.56 1163.82
  Q 737.36 1166.22 712.39 1165.82
  Q 688.02 1165.42 662.36 1161.65
  Q 593.15 1151.50 528.91 1120.81
  Q 502.80 1108.34 475.65 1090.13
  Q 434.08 1062.24 402.04 1028.09
  Q 396.63 1022.33 395.18 1020.64
  C 389.12 1013.60 383.10 1007.38 378.05 1000.87
  Q 358.50 975.70 346.29 956.50
  Q 329.32 929.80 317.10 901.67
  Q 308.98 883.00 302.22 863.26
  C 290.75 829.78 283.44 794.71 281.24 759.19
  Q 279.81 736.14 280.07 716.50
  Q 280.22 705.05 281.83 675.66
  C 282.44 664.50 284.28 651.78 286.34 642.03
  C 288.28 632.82 289.75 624.29 292.14 615.65
  Q 296.22 600.87 299.20 590.97
  C 303.70 575.96 309.74 562.75 316.41 547.10
  Q 321.44 535.30 332.19 514.95
  Q 333.99 511.54 349.02 487.03
  Q 358.28 471.94 367.47 460.16
  Q 384.81 437.94 395.75 426.00
  Q 442.17 375.33 502.90 341.39
  Q 542.04 319.51 579.98 306.81
  C 595.39 301.66 608.06 297.39 621.07 294.58
  Q 642.84 289.87 675.82 285.96
  C 684.20 284.97 691.69 285.12 700.86 284.50
  C 719.48 283.25 735.89 284.19 756.92 285.51
  Q 771.33 286.41 788.98 289.45
  Q 817.21 294.31 820.78 295.20
  Q 859.45 304.93 896.00 320.66
  Q 911.88 327.49 923.07 333.52
  C 940.87 343.10 960.17 354.61 977.90 367.59
  Q 994.88 380.01 1004.62 388.13
  Q 1038.19 416.12 1065.47 451.02
  Q 1078.46 467.64 1086.44 479.79
  Q 1093.73 490.88 1106.59 512.89
  Q 1115.35 527.88 1124.85 549.65
  Q 1134.52 571.84 1139.21 586.00
  Q 1141.11 591.71 1145.30 605.75
  C 1147.78 614.05 1149.72 622.76 1151.07 628.91
  A 1.60 1.60 0.0 0 0 1152.63 630.16
  L 1194.39 630.16
  A 0.74 0.74 0.0 0 0 1195.07 629.12"
/>
<path stroke="#88a6e1" vector-effect="non-scaling-stroke" d="
  M 1100.37 628.97
  C 1099.13 626.87 1099.17 624.53 1098.39 622.03
  Q 1086.74 584.78 1082.65 574.84
  Q 1072.24 549.57 1061.99 531.69
  Q 1052.11 514.47 1041.17 498.79
  Q 1011.61 456.39 969.14 421.14
  Q 956.94 411.02 944.67 402.69
  C 927.80 391.23 914.55 382.94 899.62 375.45
  Q 877.98 364.59 851.04 354.52
  Q 844.40 352.04 834.24 349.00
  Q 819.91 344.71 817.23 344.07
  Q 798.65 339.66 779.49 336.73
  Q 767.70 334.92 756.03 334.17
  Q 739.64 333.12 732.45 332.92
  Q 707.13 332.19 678.61 334.84
  Q 669.81 335.66 656.39 338.17
  Q 637.39 341.73 634.28 342.36
  Q 616.83 345.89 599.83 351.57
  Q 573.26 360.45 548.81 372.19
  Q 533.83 379.38 521.76 386.78
  C 501.88 398.96 483.17 411.66 466.11 426.86
  Q 461.80 430.69 448.30 443.55
  Q 426.41 464.41 409.55 486.07
  Q 402.58 495.02 394.43 507.26
  Q 383.51 523.68 380.43 529.19
  Q 342.86 596.35 331.95 672.69
  Q 331.36 676.81 330.21 689.80
  C 328.73 706.48 328.32 720.81 328.84 739.50
  Q 328.98 744.59 330.64 763.24
  Q 331.68 774.81 333.71 786.85
  Q 339.35 820.34 349.75 851.33
  Q 357.85 875.46 373.89 907.00
  Q 377.84 914.76 383.25 923.54
  Q 391.90 937.60 393.36 939.65
  C 406.67 958.41 415.42 971.02 427.79 983.96
  C 433.42 989.85 436.93 994.13 442.13 999.22
  Q 462.35 1019.05 468.47 1024.14
  Q 482.56 1035.84 490.42 1041.32
  C 500.55 1048.38 509.03 1054.60 518.04 1059.98
  Q 561.82 1086.10 607.72 1099.54
  Q 627.17 1105.23 653.77 1110.16
  Q 671.67 1113.47 689.52 1114.60
  Q 713.78 1116.14 725.50 1115.72
  Q 751.98 1114.76 768.36 1112.81
  Q 787.29 1110.56 813.51 1104.36
  Q 831.76 1100.04 847.86 1094.23
  Q 871.08 1085.85 881.23 1081.21
  Q 903.78 1070.91 923.38 1059.12
  Q 933.30 1053.15 952.49 1039.54
  Q 967.16 1029.13 979.79 1017.55
  Q 1000.26 998.78 1017.04 979.55
  Q 1026.64 968.56 1030.24 963.50
  Q 1041.43 947.77 1046.82 939.83
  C 1051.33 933.19 1059.41 920.75 1064.69 910.57
  Q 1074.99 890.72 1076.25 887.97
  Q 1087.52 863.42 1097.13 832.23
  Q 1099.36 824.97 1101.00 819.73
  A 0.50 0.50 0.0 0 0 1100.62 819.09
  Q 1098.85 818.71 1096.00 818.67
  Q 1074.46 818.44 1057.28 818.83
  A 1.02 1.01 -82.7 0 0 1056.32 819.58
  C 1054.82 825.29 1051.77 832.96 1049.35 840.64
  Q 1048.52 843.29 1043.61 855.37
  Q 1030.08 888.64 1010.98 916.87
  C 1005.98 924.27 999.03 933.20 994.45 938.96
  Q 970.10 969.54 938.26 995.76
  Q 937.64 996.26 922.01 1008.02
  C 901.78 1023.25 880.83 1034.10 858.38 1044.33
  Q 841.40 1052.07 819.60 1058.79
  Q 799.62 1064.96 780.68 1067.88
  Q 760.28 1071.02 752.49 1071.46
  C 740.21 1072.17 730.91 1073.18 721.49 1072.95
  Q 702.07 1072.47 691.26 1071.63
  Q 662.74 1069.43 634.09 1061.80
  Q 616.45 1057.11 604.03 1052.67
  Q 582.98 1045.14 563.14 1034.88
  C 547.20 1026.62 531.84 1017.92 518.92 1008.10
  Q 506.03 998.31 498.18 992.33
  Q 493.55 988.79 480.65 976.36
  Q 463.14 959.47 451.98 945.82
  Q 450.42 943.91 438.28 928.43
  Q 431.77 920.12 426.91 911.92
  C 421.72 903.15 415.72 893.49 411.08 884.17
  Q 405.05 872.06 402.86 867.40
  Q 381.23 821.58 374.91 771.45
  Q 373.67 761.67 372.80 746.01
  Q 371.71 726.42 371.84 720.50
  Q 372.19 704.49 372.38 695.67
  C 372.63 684.35 374.14 671.70 376.21 662.23
  C 378.00 654.06 378.85 647.88 380.98 640.04
  Q 386.49 619.79 393.42 601.31
  Q 395.38 596.08 396.95 592.48
  C 400.49 584.39 402.88 577.95 406.71 570.88
  Q 415.00 555.56 417.95 550.21
  C 423.13 540.85 430.00 530.87 434.26 525.00
  Q 441.76 514.67 453.18 500.14
  C 458.77 493.03 463.26 488.57 470.29 481.23
  C 474.92 476.38 480.01 471.93 484.45 467.61
  Q 490.30 461.94 495.40 457.77
  Q 514.89 441.83 531.33 431.58
  Q 545.52 422.72 563.79 413.28
  Q 602.05 393.50 643.29 384.38
  Q 656.76 381.40 679.15 378.30
  C 690.85 376.68 705.37 376.11 714.75 375.90
  Q 729.65 375.57 753.49 377.57
  Q 763.30 378.39 786.93 382.46
  C 796.36 384.08 808.14 387.33 818.57 390.22
  Q 848.00 398.38 878.32 414.16
  Q 894.78 422.73 911.74 433.29
  C 916.77 436.42 921.87 440.34 925.85 443.17
  C 943.95 456.07 960.41 471.13 976.87 488.76
  Q 985.71 498.22 994.98 510.62
  Q 1006.28 525.73 1011.57 533.40
  Q 1029.93 560.03 1043.59 593.46
  Q 1051.67 613.24 1055.88 628.85
  A 1.19 1.16 -87.7 0 0 1056.58 629.63
  Q 1057.91 630.14 1060.01 630.15
  Q 1077.03 630.25 1095.50 630.15
  Q 1097.69 630.14 1099.96 629.81
  A 0.57 0.56 -19.2 0 0 1100.37 628.97"
/>
<path stroke="#88a6e1" vector-effect="non-scaling-stroke" d="
  M 1004.65 819.06
  Q 1002.43 818.79 1000.25 818.76
  Q 985.98 818.61 971.75 818.60
  Q 965.34 818.59 960.28 818.90
  A 1.65 1.63 9.3 0 0 958.88 819.89
  C 951.42 837.17 942.49 854.15 931.65 869.54
  Q 924.79 879.28 923.08 881.33
  Q 908.24 898.99 897.19 909.43
  Q 873.57 931.75 843.88 948.86
  C 830.87 956.36 818.86 961.30 804.95 966.45
  Q 783.62 974.35 761.99 977.64
  Q 730.31 982.47 693.05 979.35
  C 665.40 977.04 637.50 968.02 612.40 956.69
  Q 608.28 954.83 602.31 951.55
  C 593.06 946.46 584.01 941.28 574.38 934.62
  Q 568.76 930.72 561.13 924.46
  Q 550.68 915.88 548.28 913.72
  Q 528.76 896.09 512.36 873.72
  Q 496.86 852.59 487.83 832.00
  Q 477.69 808.91 473.21 793.55
  Q 469.08 779.39 467.14 766.23
  Q 462.14 732.29 464.57 699.25
  Q 465.64 684.59 467.58 673.06
  Q 469.50 661.62 474.50 647.67
  Q 481.29 628.70 483.79 623.04
  Q 491.41 605.77 506.77 581.99
  Q 512.01 573.87 519.66 564.77
  Q 532.04 550.04 533.64 548.39
  Q 544.11 537.59 551.05 531.81
  Q 564.17 520.91 566.61 519.11
  C 584.83 505.62 603.79 494.43 624.92 486.50
  Q 646.21 478.50 657.39 475.43
  Q 688.94 466.77 728.76 468.10
  Q 751.99 468.87 766.20 471.67
  Q 809.17 480.13 848.85 502.44
  Q 857.54 507.33 864.73 512.53
  C 888.25 529.53 910.22 549.58 927.24 573.28
  Q 930.63 578.01 935.12 584.62
  Q 948.82 604.80 958.21 627.77
  Q 959.18 630.14 962.15 630.15
  Q 982.84 630.21 999.01 630.16
  Q 1002.13 630.15 1004.71 629.82
  A 0.50 0.50 0.0 0 0 1005.06 629.04
  Q 1004.14 627.69 1003.69 626.03
  C 1002.02 620.05 999.44 614.70 997.47 609.68
  C 991.27 593.95 983.12 578.64 973.38 562.67
  Q 966.52 551.42 958.64 541.66
  C 943.72 523.20 927.35 505.75 908.97 490.78
  Q 890.31 475.59 870.30 464.20
  C 844.10 449.29 816.17 438.29 786.78 431.92
  Q 776.29 429.64 767.75 428.51
  C 760.72 427.58 754.45 426.42 748.73 426.03
  Q 728.76 424.71 710.89 425.19
  Q 692.98 425.68 673.27 428.89
  Q 649.88 432.69 631.92 437.98
  Q 583.83 452.14 541.03 484.56
  Q 528.12 494.34 522.27 499.81
  Q 509.24 511.98 497.85 524.10
  Q 491.75 530.59 479.26 546.21
  Q 472.09 555.17 465.36 566.65
  Q 455.68 583.16 453.21 588.20
  Q 443.71 607.58 440.09 618.04
  Q 434.07 635.44 431.60 644.53
  Q 428.02 657.70 424.86 673.59
  C 423.77 679.05 423.53 684.43 422.56 690.07
  Q 421.78 694.61 421.28 702.48
  Q 419.71 727.07 421.87 751.34
  C 422.30 756.09 423.22 760.89 423.68 765.95
  Q 424.06 770.20 425.33 776.83
  Q 428.13 791.45 431.91 805.61
  Q 441.75 842.46 461.44 874.56
  C 465.48 881.14 469.77 888.22 474.00 893.94
  C 479.03 900.72 481.98 905.42 486.43 910.71
  Q 498.30 924.83 507.78 934.78
  C 514.96 942.31 524.30 950.43 530.93 956.30
  Q 542.43 966.49 559.00 977.00
  C 584.34 993.10 610.85 1005.13 638.95 1012.57
  Q 652.85 1016.25 655.14 1016.71
  Q 688.89 1023.37 712.51 1023.89
  C 731.48 1024.32 749.06 1022.47 767.25 1020.02
  C 779.62 1018.36 790.55 1015.10 808.78 1010.30
  Q 818.35 1007.78 835.38 1000.87
  Q 845.84 996.63 849.03 995.02
  Q 866.85 986.07 883.14 975.93
  Q 896.84 967.40 912.94 953.36
  C 930.07 938.44 946.01 922.31 958.78 905.05
  C 973.51 885.13 986.74 863.50 996.85 839.86
  Q 998.69 835.55 1004.96 819.58
  A 0.38 0.38 0.0 0 0 1004.65 819.06"
/>
<path stroke="#88a6e1" vector-effect="non-scaling-stroke" d="
  M 906.34 629.18
  C 903.28 624.63 900.83 618.69 897.34 613.53
  Q 883.13 592.51 868.48 577.78
  Q 830.55 539.63 778.12 524.14
  Q 772.19 522.38 763.36 520.67
  Q 753.45 518.75 748.42 518.18
  C 739.50 517.19 733.11 516.02 725.82 516.01
  Q 712.46 516.00 709.31 516.38
  C 693.12 518.30 680.76 519.53 666.00 523.53
  Q 641.29 530.22 616.85 543.88
  Q 600.61 552.97 587.59 564.34
  C 581.17 569.95 573.47 576.40 567.53 582.98
  Q 544.54 608.46 530.03 640.34
  C 527.81 645.22 526.44 649.77 524.64 654.38
  Q 522.70 659.35 521.08 665.10
  Q 510.00 704.49 513.46 744.61
  Q 514.24 753.64 515.81 761.16
  Q 517.60 769.75 519.54 777.47
  Q 526.98 807.03 543.63 832.94
  Q 554.08 849.19 564.69 861.09
  C 575.77 873.50 587.92 883.83 599.34 892.64
  C 616.73 906.06 635.82 914.85 657.41 921.85
  Q 679.75 929.10 699.26 930.65
  Q 705.19 931.12 711.09 931.52
  C 720.07 932.14 730.02 931.68 737.43 931.13
  Q 758.83 929.53 778.62 923.34
  C 794.48 918.38 811.16 912.10 825.55 903.06
  Q 849.43 888.07 867.43 870.17
  Q 884.01 853.68 898.29 831.24
  C 900.75 827.35 901.94 823.25 904.78 820.20
  A 0.86 0.86 0.0 0 0 904.16 818.75
  Q 878.81 818.39 858.76 818.70
  Q 856.20 818.74 854.21 819.76
  A 1.99 1.95 -84.2 0 0 853.55 820.31
  C 828.85 852.90 793.31 877.64 753.12 886.39
  Q 747.26 887.67 735.74 888.69
  Q 700.44 891.83 667.48 880.99
  C 663.23 879.59 658.96 877.44 655.28 875.99
  Q 650.74 874.21 646.38 871.65
  Q 629.91 861.98 621.04 854.94
  Q 601.96 839.79 586.38 818.37
  Q 576.34 804.58 569.03 787.72
  C 562.29 772.19 558.27 755.84 556.91 739.15
  Q 555.68 724.03 556.28 711.85
  Q 557.58 685.19 568.48 660.68
  C 579.42 636.10 596.38 614.51 617.35 596.61
  C 632.81 583.41 650.49 574.96 669.95 568.24
  Q 682.08 564.05 696.37 562.15
  Q 718.47 559.22 738.73 561.31
  Q 754.57 562.96 766.09 566.44
  Q 781.05 570.96 792.06 576.49
  Q 809.66 585.33 823.97 597.28
  Q 840.26 610.90 853.99 628.88
  A 1.87 1.85 82.3 0 0 854.74 629.46
  Q 856.18 630.07 858.75 630.10
  Q 883.91 630.37 905.91 630.00
  A 0.53 0.53 0.0 0 0 906.34 629.18"
/>
<path stroke="#828172" vector-effect="non-scaling-stroke" d="
  M 692.19 707.71
  Q 701.77 697.35 713.27 688.86
  A 0.83 0.82 50.0 0 0 713.37 687.63
  Q 709.95 684.10 705.67 680.64
  C 691.62 669.31 674.53 664.24 656.40 665.93
  C 640.21 667.44 626.22 672.73 614.12 683.48
  C 602.61 693.70 596.65 707.36 595.08 722.42
  C 592.72 745.17 599.32 765.94 616.83 780.85
  C 625.42 788.15 636.87 792.59 648.32 795.19
  Q 653.12 796.28 658.63 796.35
  Q 667.62 796.46 668.96 796.19
  Q 677.96 794.39 681.93 793.18
  C 692.78 789.87 701.94 783.68 710.26 775.76
  Q 710.71 775.33 712.12 775.16
  A 0.40 0.40 0.0 0 1 712.53 775.71
  L 705.49 793.02
  A 0.52 0.52 0.0 0 0 705.97 793.73
  L 738.76 793.73
  A 0.98 0.98 0.0 0 0 739.68 793.08
  L 747.64 770.73
  A 2.41 2.40 -80.1 0 1 749.90 769.13
  L 800.11 769.13
  A 1.07 1.07 0.0 0 1 801.16 770.01
  Q 801.95 774.18 802.99 777.03
  Q 804.75 781.84 809.09 793.17
  A 0.98 0.97 -10.5 0 0 810.00 793.79
  L 843.97 793.79
  A 0.66 0.65 77.5 0 0 844.56 792.86
  C 843.29 790.10 841.20 786.82 839.66 783.30
  Q 828.75 758.39 820.19 736.75
  C 810.97 713.39 802.02 692.73 792.24 668.58
  A 0.82 0.82 0.0 0 0 791.48 668.07
  L 757.85 668.07
  A 1.26 1.26 0.0 0 0 756.67 668.88
  C 747.87 691.77 737.71 716.18 723.63 750.69
  C 720.62 758.07 717.98 766.07 714.09 773.08
  A 0.85 0.84 -52.8 0 1 712.76 773.27
  C 709.31 769.76 706.89 767.35 703.57 764.79
  Q 696.62 759.43 692.40 755.26
  A 0.69 0.68 -43.8 0 0 691.45 755.25
  C 685.64 760.64 679.02 765.27 670.97 766.69
  C 655.87 769.36 639.29 764.76 632.38 749.78
  Q 624.41 732.52 630.99 714.93
  Q 634.84 704.63 644.38 699.13
  Q 653.13 694.09 664.70 694.82
  Q 680.41 695.80 691.32 707.71
  A 0.60 0.59 -44.7 0 0 692.19 707.71"
/>
<path stroke="#828172" vector-effect="non-scaling-stroke" d="
  M 855.94 757.57
  A 0.45 0.45 0.0 0 0 855.28 757.77
  L 845.77 781.17
  A 1.72 1.71 22.8 0 0 846.68 783.39
  Q 852.48 785.88 855.90 787.51
  C 864.43 791.60 872.89 793.35 882.45 795.02
  Q 891.31 796.56 899.11 795.91
  C 912.56 794.79 924.54 791.72 935.33 783.36
  C 944.06 776.58 946.70 768.11 948.17 757.44
  Q 948.59 754.34 947.74 749.85
  C 945.56 738.44 939.32 731.69 929.17 726.91
  Q 922.32 723.67 919.40 722.64
  Q 914.73 721.00 897.47 716.51
  Q 891.85 715.05 888.87 713.90
  C 885.10 712.45 878.23 707.95 879.74 703.16
  C 882.70 693.81 894.75 692.34 903.49 693.14
  Q 915.86 694.26 928.51 699.58
  Q 930.10 700.25 932.09 701.62
  A 0.95 0.94 -63.3 0 0 933.52 701.14
  Q 937.74 688.87 943.74 678.26
  A 1.68 1.67 28.1 0 0 943.03 675.93
  C 925.44 667.14 905.48 663.36 886.03 666.80
  C 872.90 669.13 858.98 676.38 852.18 687.95
  Q 847.81 695.38 847.29 705.02
  Q 846.03 728.51 866.79 737.16
  Q 876.21 741.08 881.22 742.26
  Q 893.48 745.14 899.59 746.56
  C 905.83 748.01 917.89 751.82 916.56 760.42
  C 915.01 770.52 897.45 770.36 890.62 770.03
  Q 883.82 769.71 875.92 766.98
  Q 863.85 762.81 855.94 757.57"
/>
<path stroke="#828172" vector-effect="non-scaling-stroke" d="
  M 1066.06 668.15
  A 0.86 0.85 -10.5 0 0 1065.26 669.31
  L 1113.36 792.45
  A 2.09 2.09 0.0 0 0 1115.31 793.78
  L 1147.78 793.78
  A 1.34 1.32 -77.3 0 0 1148.98 793.01
  Q 1151.18 788.30 1154.29 779.21
  Q 1156.24 773.51 1159.49 765.45
  Q 1179.59 715.50 1196.83 668.44
  A 0.26 0.25 -80.3 0 0 1196.59 668.10
  L 1166.84 668.10
  A 1.20 1.19 9.6 0 0 1165.71 668.90
  Q 1155.42 698.19 1142.48 730.17
  C 1139.55 737.41 1136.95 746.31 1133.96 752.80
  A 0.71 0.70 -47.9 0 1 1132.71 752.87
  Q 1130.71 749.49 1129.25 745.28
  Q 1125.73 735.15 1121.86 726.90
  Q 1120.32 723.60 1115.63 710.20
  C 1110.41 695.27 1105.55 682.70 1101.09 668.88
  A 1.06 1.05 80.8 0 0 1100.09 668.15
  L 1066.06 668.15"
/>
<path stroke="#828172" vector-effect="non-scaling-stroke" d="
  M 1050.49 717.21
  L 996.30 717.21
  A 0.84 0.83 0.0 0 1 995.46 716.38
  L 995.46 695.93
  A 0.85 0.85 0.0 0 1 996.31 695.08
  L 1057.17 695.08
  A 0.45 0.45 0.0 0 0 1057.62 694.63
  L 1057.62 668.58
  A 0.51 0.51 0.0 0 0 1057.11 668.07
  L 962.76 668.07
  A 0.61 0.61 0.0 0 0 962.15 668.68
  L 962.15 793.20
  A 0.59 0.59 0.0 0 0 962.74 793.79
  L 1058.87 793.79
  A 0.90 0.90 0.0 0 0 1059.77 792.83
  Q 1058.89 779.59 1059.87 767.82
  A 0.59 0.59 0.0 0 0 1059.28 767.18
  L 996.43 767.18
  A 0.77 0.77 0.0 0 1 995.66 766.41
  L 995.66 743.68
  A 0.99 0.98 -0.0 0 1 996.65 742.70
  L 1050.32 742.70
  A 0.63 0.62 -90.0 0 0 1050.94 742.07
  L 1050.94 717.66
  A 0.45 0.45 0.0 0 0 1050.49 717.21"
/>
<path stroke="#828172" vector-effect="non-scaling-stroke" d="
  M 1312.80 792.88
  Q 1302.19 768.81 1294.74 749.93
  C 1283.61 721.71 1272.74 696.31 1261.59 668.89
  A 1.16 1.16 0.0 0 0 1260.51 668.16
  L 1228.49 668.16
  A 1.78 1.76 11.1 0 0 1226.85 669.25
  Q 1211.22 706.62 1211.19 706.68
  Q 1205.86 718.83 1195.97 744.24
  Q 1185.98 769.92 1176.76 793.41
  A 0.64 0.64 0.0 0 0 1177.43 794.29
  C 1178.81 794.14 1180.02 793.79 1181.55 793.78
  Q 1193.41 793.70 1208.00 793.73
  A 1.55 1.53 -79.8 0 0 1209.46 792.70
  L 1217.51 770.09
  A 1.03 1.02 9.6 0 1 1218.48 769.41
  L 1269.37 769.41
  A 1.22 1.21 80.0 0 1 1270.51 770.22
  L 1278.74 793.37
  A 0.67 0.67 0.0 0 0 1279.37 793.81
  L 1312.19 793.81
  A 0.67 0.66 -11.9 0 0 1312.80 792.88"
/>
<path stroke="#828172" vector-effect="non-scaling-stroke" d="
  M 758.77 742.93
  A 0.81 0.81 0.0 0 0 759.53 744.03
  L 789.27 744.08
  A 0.81 0.81 0.0 0 0 790.02 742.99
  L 775.22 703.85
  A 0.81 0.81 0.0 0 0 773.71 703.85
  L 758.77 742.93"
/>
<path stroke="#828172" vector-effect="non-scaling-stroke" d="
  M 1228.29 743.55
  A 0.33 0.33 0.0 0 0 1228.59 743.99
  L 1259.12 744.05
  A 0.33 0.33 0.0 0 0 1259.43 743.60
  L 1244.24 703.23
  A 0.33 0.33 0.0 0 0 1243.62 703.23
  L 1228.29 743.55"
/>
</g>
<path fill="#f9f5d0" d="
  M 1448.00 0.00
  L 1448.00 1448.00
  L 0.00 1448.00
  L 0.00 0.00
  L 1448.00 0.00
  Z
  M 1287.80 818.65
  L 1246.32 818.65
  A 1.11 1.11 0.0 0 0 1245.23 819.54
  Q 1232.07 883.92 1206.44 941.50
  Q 1196.74 963.30 1187.24 980.01
  Q 1176.60 998.70 1174.69 1001.70
  Q 1158.27 1027.36 1148.56 1040.30
  Q 1125.77 1070.66 1095.04 1101.99
  C 1092.85 1104.23 1090.34 1105.98 1088.30 1108.36
  Q 1086.56 1110.39 1083.35 1113.27
  Q 1055.19 1138.45 1040.55 1149.28
  Q 1020.64 1164.02 1005.28 1173.77
  Q 959.73 1202.70 904.60 1224.35
  C 898.71 1226.66 893.44 1227.88 887.59 1230.08
  Q 881.60 1232.32 874.77 1234.06
  Q 872.10 1234.74 864.10 1237.39
  Q 861.13 1238.38 853.36 1240.43
  Q 833.88 1245.57 815.72 1248.90
  C 808.53 1250.21 800.98 1250.95 794.86 1252.09
  Q 788.16 1253.34 779.21 1254.26
  Q 752.70 1256.98 730.56 1257.09
  C 716.68 1257.16 694.97 1257.39 678.33 1255.92
  Q 637.47 1252.32 595.83 1242.41
  C 585.71 1240.00 575.03 1236.72 564.04 1233.42
  Q 530.74 1223.45 497.60 1207.87
  Q 445.66 1183.46 399.29 1148.45
  Q 375.35 1130.37 346.10 1102.32
  C 340.39 1096.84 334.82 1090.37 329.20 1084.63
  Q 323.56 1078.88 316.95 1070.84
  Q 297.18 1046.78 294.89 1043.62
  Q 281.07 1024.61 277.74 1019.50
  Q 268.76 1005.72 257.90 987.76
  C 251.90 977.85 248.43 970.00 242.41 958.22
  C 233.19 940.15 226.59 923.38 218.55 902.66
  C 215.04 893.63 213.02 886.45 209.32 874.71
  Q 196.49 833.96 191.93 791.80
  Q 190.92 782.47 189.69 767.75
  Q 185.75 720.60 189.91 674.17
  Q 191.87 652.31 192.45 647.33
  Q 193.73 636.19 196.44 620.67
  Q 199.25 604.57 203.13 592.38
  Q 206.67 581.26 208.70 573.26
  Q 211.46 562.41 216.21 549.41
  C 222.87 531.17 229.72 513.98 238.40 496.70
  C 247.91 477.78 256.32 461.39 267.10 444.36
  Q 275.32 431.36 291.70 408.19
  Q 301.91 393.74 323.65 369.15
  Q 332.66 358.95 350.10 341.62
  Q 363.70 328.10 378.36 315.93
  Q 397.55 300.00 414.91 288.16
  Q 434.12 275.06 456.14 261.94
  C 461.73 258.61 468.47 255.37 474.28 252.02
  Q 475.43 251.36 480.06 249.26
  C 489.16 245.16 495.66 240.98 503.94 237.53
  C 514.64 233.08 531.73 225.08 546.18 220.64
  Q 562.45 215.65 574.30 211.90
  C 598.06 204.39 620.15 200.46 646.38 196.11
  C 652.31 195.13 659.45 194.98 665.52 194.04
  Q 676.09 192.40 679.88 192.13
  Q 712.87 189.78 749.00 191.60
  Q 762.63 192.29 773.37 193.92
  C 780.52 195.01 787.40 195.09 794.49 196.29
  Q 811.90 199.23 828.87 202.75
  C 839.53 204.97 848.38 207.61 859.41 210.37
  C 867.08 212.29 874.97 215.16 882.63 217.47
  C 901.93 223.28 920.51 230.73 939.41 239.13
  C 946.19 242.14 951.32 245.19 956.96 247.74
  Q 963.86 250.87 970.07 254.30
  Q 1011.25 277.06 1040.31 298.79
  Q 1045.70 302.82 1070.00 323.04
  C 1076.18 328.19 1081.03 333.27 1086.90 338.64
  Q 1103.09 353.45 1116.33 368.54
  C 1122.74 375.85 1131.32 385.62 1137.96 394.16
  Q 1162.53 425.81 1182.35 460.16
  Q 1194.00 480.35 1200.27 492.76
  Q 1206.01 504.12 1214.19 523.36
  C 1219.89 536.75 1224.20 549.81 1228.51 562.00
  C 1230.88 568.69 1232.07 575.49 1234.21 581.62
  Q 1236.77 588.97 1238.44 596.31
  Q 1241.26 608.69 1241.91 612.14
  C 1242.85 617.17 1245.22 623.07 1245.58 628.97
  A 1.26 1.25 -1.7 0 0 1246.84 630.15
  L 1288.21 630.15
  A 0.75 0.75 0.0 0 0 1288.89 629.07
  C 1287.84 626.88 1287.80 623.93 1287.22 621.11
  Q 1281.53 593.42 1273.91 565.29
  C 1267.39 541.19 1258.37 517.67 1249.48 497.01
  Q 1229.56 450.75 1202.23 408.96
  C 1194.47 397.09 1184.07 382.73 1177.05 373.20
  Q 1171.45 365.62 1160.28 351.95
  C 1154.05 344.33 1147.86 338.07 1141.80 331.37
  Q 1135.73 324.66 1127.42 316.42
  Q 1107.50 296.67 1086.20 279.09
  Q 1082.04 275.66 1062.53 261.07
  Q 1054.39 254.98 1046.30 249.71
  Q 1042.46 247.22 1029.70 238.86
  Q 1004.88 222.61 971.58 206.21
  Q 946.41 193.81 907.70 179.81
  Q 894.90 175.18 858.93 165.82
  C 849.92 163.48 841.52 162.25 831.50 160.11
  C 817.39 157.09 797.31 154.92 786.94 153.10
  Q 779.80 151.84 773.38 151.64
  Q 771.64 151.59 759.74 150.65
  Q 747.44 149.67 739.26 149.49
  Q 691.25 148.45 654.79 152.92
  C 639.30 154.81 617.41 159.16 596.27 163.27
  Q 588.94 164.69 580.63 166.89
  Q 565.82 170.81 543.53 177.10
  C 527.37 181.65 509.17 189.09 497.79 193.82
  Q 497.54 193.92 473.08 205.01
  Q 460.04 210.92 448.73 217.02
  Q 427.66 228.38 412.26 238.29
  Q 390.27 252.43 385.29 256.05
  Q 368.05 268.59 354.90 279.22
  Q 340.39 290.94 326.18 304.41
  C 296.11 332.94 269.34 363.48 246.13 397.50
  Q 231.08 419.57 221.66 436.15
  Q 211.60 453.88 204.51 468.44
  Q 196.17 485.55 187.00 507.29
  Q 182.15 518.78 178.11 530.01
  Q 171.35 548.76 170.11 553.09
  Q 156.64 600.10 150.52 639.76
  Q 144.05 681.66 144.64 722.99
  Q 144.98 746.80 146.89 772.60
  Q 147.84 785.32 149.74 796.91
  Q 153.07 817.27 153.61 821.08
  Q 154.68 828.67 157.35 839.41
  Q 158.09 842.41 160.97 857.76
  Q 162.76 867.29 169.06 889.73
  C 170.61 895.24 173.07 901.10 175.10 907.85
  Q 179.75 923.28 185.75 937.07
  C 189.65 946.04 192.59 954.36 196.29 961.91
  Q 210.30 990.55 213.27 996.50
  Q 219.56 1009.06 237.66 1038.45
  Q 257.16 1070.10 285.79 1102.62
  Q 297.66 1116.10 316.04 1134.52
  Q 341.08 1159.61 366.83 1179.67
  Q 377.38 1187.88 398.10 1202.23
  Q 412.82 1212.42 429.60 1221.86
  Q 452.38 1234.68 462.07 1239.40
  Q 487.62 1251.83 514.26 1262.28
  Q 540.45 1272.55 563.36 1278.64
  Q 590.98 1285.98 613.74 1290.47
  Q 636.61 1294.97 663.25 1297.40
  Q 696.12 1300.38 729.00 1299.74
  C 736.80 1299.59 751.45 1299.22 763.99 1298.24
  Q 772.23 1297.59 780.24 1296.93
  C 795.60 1295.68 812.96 1293.02 829.61 1289.51
  Q 845.69 1286.11 850.86 1284.79
  Q 863.08 1281.67 866.81 1280.79
  C 878.04 1278.16 886.64 1275.20 900.38 1271.10
  C 918.21 1265.78 936.40 1258.21 954.16 1250.58
  Q 1024.87 1220.20 1084.47 1171.18
  Q 1105.64 1153.77 1120.12 1139.60
  Q 1181.11 1079.93 1222.24 1006.30
  Q 1234.34 984.64 1243.53 963.83
  C 1252.83 942.79 1257.60 932.81 1263.11 915.88
  C 1264.31 912.18 1266.06 908.19 1267.20 904.72
  Q 1269.33 898.29 1278.56 861.73
  C 1280.26 855.02 1282.58 848.39 1283.66 842.92
  Q 1287.28 824.63 1288.48 819.51
  A 0.70 0.70 0.0 0 0 1287.80 818.65
  Z
  M 1195.07 629.12
  C 1194.15 627.07 1194.01 624.27 1193.59 622.41
  Q 1189.70 605.23 1188.14 599.61
  Q 1183.32 582.16 1174.48 556.87
  Q 1171.32 547.85 1166.83 537.22
  Q 1160.84 523.03 1158.28 517.92
  C 1153.44 508.26 1145.86 492.80 1138.90 480.85
  Q 1121.13 450.30 1101.93 426.05
  Q 1070.25 386.02 1028.73 351.25
  C 1015.42 340.10 999.51 328.80 986.59 319.92
  C 971.41 309.50 955.78 300.84 939.22 292.33
  C 898.30 271.32 853.93 256.86 808.50 248.04
  Q 796.95 245.80 793.28 245.23
  Q 778.79 242.97 751.02 241.20
  Q 743.73 240.73 711.17 240.77
  Q 692.86 240.79 680.37 241.79
  Q 658.35 243.56 649.75 245.02
  Q 627.83 248.76 594.99 256.97
  Q 582.75 260.03 568.10 265.02
  Q 546.94 272.21 541.62 274.38
  Q 489.18 295.71 444.81 326.82
  Q 435.63 333.26 420.08 344.95
  C 411.53 351.38 401.63 360.29 394.77 366.27
  Q 390.95 369.61 370.14 390.65
  Q 356.51 404.43 345.40 418.64
  C 331.04 436.99 317.12 455.82 305.31 475.91
  Q 296.83 490.33 291.61 500.08
  Q 276.01 529.19 264.97 561.21
  Q 258.25 580.70 253.29 598.51
  Q 241.37 641.33 237.80 685.26
  C 236.32 703.46 236.55 724.92 236.83 741.74
  C 237.18 762.39 239.50 782.04 242.88 801.87
  C 245.14 815.15 248.30 827.34 251.02 840.69
  C 252.92 850.00 256.01 859.20 258.95 869.06
  Q 270.84 908.89 290.55 946.47
  Q 293.39 951.88 303.42 969.35
  C 306.79 975.22 310.13 980.15 313.48 985.46
  Q 317.16 991.30 321.36 997.31
  Q 328.21 1007.14 332.10 1012.42
  Q 345.54 1030.67 364.80 1052.21
  Q 387.27 1077.32 418.14 1101.71
  Q 434.11 1114.34 442.41 1120.21
  Q 463.85 1135.39 480.95 1145.05
  Q 494.25 1152.57 515.48 1162.71
  C 536.20 1172.62 557.67 1180.56 577.73 1186.51
  Q 598.61 1192.70 625.59 1198.64
  Q 647.92 1203.56 668.01 1205.37
  Q 696.01 1207.89 726.25 1207.63
  Q 750.72 1207.43 770.17 1205.33
  C 776.89 1204.61 790.00 1203.34 799.91 1201.47
  Q 828.06 1196.17 850.31 1190.06
  Q 882.45 1181.24 913.87 1167.83
  C 929.75 1161.05 945.41 1152.59 959.04 1145.03
  Q 976.70 1135.25 997.82 1120.29
  Q 1005.49 1114.87 1020.20 1103.43
  C 1043.77 1085.11 1065.56 1063.67 1085.08 1041.35
  Q 1129.12 990.99 1157.40 931.10
  C 1162.77 919.72 1166.88 910.92 1170.97 900.24
  Q 1185.94 861.19 1195.25 819.56
  A 0.75 0.74 6.5 0 0 1194.52 818.65
  L 1151.46 818.65
  A 0.95 0.94 6.0 0 0 1150.53 819.39
  Q 1144.87 844.91 1137.07 868.54
  Q 1132.10 883.59 1125.75 897.86
  Q 1119.74 911.38 1112.20 926.23
  C 1106.91 936.65 1100.65 946.51 1095.51 955.02
  Q 1084.46 973.31 1072.17 988.93
  C 1060.58 1003.64 1048.42 1018.41 1034.71 1032.20
  Q 1020.99 1046.00 1016.52 1050.02
  Q 998.94 1065.86 981.00 1079.25
  C 964.50 1091.57 945.11 1103.34 927.15 1113.37
  Q 914.69 1120.34 892.50 1130.05
  Q 881.96 1134.66 868.24 1139.47
  Q 848.94 1146.24 843.62 1147.87
  Q 832.80 1151.18 809.43 1156.42
  Q 798.28 1158.92 786.07 1160.60
  Q 763.30 1163.75 762.56 1163.82
  Q 737.36 1166.22 712.39 1165.82
  Q 688.02 1165.42 662.36 1161.65
  Q 593.15 1151.50 528.91 1120.81
  Q 502.80 1108.34 475.65 1090.13
  Q 434.08 1062.24 402.04 1028.09
  Q 396.63 1022.33 395.18 1020.64
  C 389.12 1013.60 383.10 1007.38 378.05 1000.87
  Q 358.50 975.70 346.29 956.50
  Q 329.32 929.80 317.10 901.67
  Q 308.98 883.00 302.22 863.26
  C 290.75 829.78 283.44 794.71 281.24 759.19
  Q 279.81 736.14 280.07 716.50
  Q 280.22 705.05 281.83 675.66
  C 282.44 664.50 284.28 651.78 286.34 642.03
  C 288.28 632.82 289.75 624.29 292.14 615.65
  Q 296.22 600.87 299.20 590.97
  C 303.70 575.96 309.74 562.75 316.41 547.10
  Q 321.44 535.30 332.19 514.95
  Q 333.99 511.54 349.02 487.03
  Q 358.28 471.94 367.47 460.16
  Q 384.81 437.94 395.75 426.00
  Q 442.17 375.33 502.90 341.39
  Q 542.04 319.51 579.98 306.81
  C 595.39 301.66 608.06 297.39 621.07 294.58
  Q 642.84 289.87 675.82 285.96
  C 684.20 284.97 691.69 285.12 700.86 284.50
  C 719.48 283.25 735.89 284.19 756.92 285.51
  Q 771.33 286.41 788.98 289.45
  Q 817.21 294.31 820.78 295.20
  Q 859.45 304.93 896.00 320.66
  Q 911.88 327.49 923.07 333.52
  C 940.87 343.10 960.17 354.61 977.90 367.59
  Q 994.88 380.01 1004.62 388.13
  Q 1038.19 416.12 1065.47 451.02
  Q 1078.46 467.64 1086.44 479.79
  Q 1093.73 490.88 1106.59 512.89
  Q 1115.35 527.88 1124.85 549.65
  Q 1134.52 571.84 1139.21 586.00
  Q 1141.11 591.71 1145.30 605.75
  C 1147.78 614.05 1149.72 622.76 1151.07 628.91
  A 1.60 1.60 0.0 0 0 1152.63 630.16
  L 1194.39 630.16
  A 0.74 0.74 0.0 0 0 1195.07 629.12
  Z
  M 1100.37 628.97
  C 1099.13 626.87 1099.17 624.53 1098.39 622.03
  Q 1086.74 584.78 1082.65 574.84
  Q 1072.24 549.57 1061.99 531.69
  Q 1052.11 514.47 1041.17 498.79
  Q 1011.61 456.39 969.14 421.14
  Q 956.94 411.02 944.67 402.69
  C 927.80 391.23 914.55 382.94 899.62 375.45
  Q 877.98 364.59 851.04 354.52
  Q 844.40 352.04 834.24 349.00
  Q 819.91 344.71 817.23 344.07
  Q 798.65 339.66 779.49 336.73
  Q 767.70 334.92 756.03 334.17
  Q 739.64 333.12 732.45 332.92
  Q 707.13 332.19 678.61 334.84
  Q 669.81 335.66 656.39 338.17
  Q 637.39 341.73 634.28 342.36
  Q 616.83 345.89 599.83 351.57
  Q 573.26 360.45 548.81 372.19
  Q 533.83 379.38 521.76 386.78
  C 501.88 398.96 483.17 411.66 466.11 426.86
  Q 461.80 430.69 448.30 443.55
  Q 426.41 464.41 409.55 486.07
  Q 402.58 495.02 394.43 507.26
  Q 383.51 523.68 380.43 529.19
  Q 342.86 596.35 331.95 672.69
  Q 331.36 676.81 330.21 689.80
  C 328.73 706.48 328.32 720.81 328.84 739.50
  Q 328.98 744.59 330.64 763.24
  Q 331.68 774.81 333.71 786.85
  Q 339.35 820.34 349.75 851.33
  Q 357.85 875.46 373.89 907.00
  Q 377.84 914.76 383.25 923.54
  Q 391.90 937.60 393.36 939.65
  C 406.67 958.41 415.42 971.02 427.79 983.96
  C 433.42 989.85 436.93 994.13 442.13 999.22
  Q 462.35 1019.05 468.47 1024.14
  Q 482.56 1035.84 490.42 1041.32
  C 500.55 1048.38 509.03 1054.60 518.04 1059.98
  Q 561.82 1086.10 607.72 1099.54
  Q 627.17 1105.23 653.77 1110.16
  Q 671.67 1113.47 689.52 1114.60
  Q 713.78 1116.14 725.50 1115.72
  Q 751.98 1114.76 768.36 1112.81
  Q 787.29 1110.56 813.51 1104.36
  Q 831.76 1100.04 847.86 1094.23
  Q 871.08 1085.85 881.23 1081.21
  Q 903.78 1070.91 923.38 1059.12
  Q 933.30 1053.15 952.49 1039.54
  Q 967.16 1029.13 979.79 1017.55
  Q 1000.26 998.78 1017.04 979.55
  Q 1026.64 968.56 1030.24 963.50
  Q 1041.43 947.77 1046.82 939.83
  C 1051.33 933.19 1059.41 920.75 1064.69 910.57
  Q 1074.99 890.72 1076.25 887.97
  Q 1087.52 863.42 1097.13 832.23
  Q 1099.36 824.97 1101.00 819.73
  A 0.50 0.50 0.0 0 0 1100.62 819.09
  Q 1098.85 818.71 1096.00 818.67
  Q 1074.46 818.44 1057.28 818.83
  A 1.02 1.01 -82.7 0 0 1056.32 819.58
  C 1054.82 825.29 1051.77 832.96 1049.35 840.64
  Q 1048.52 843.29 1043.61 855.37
  Q 1030.08 888.64 1010.98 916.87
  C 1005.98 924.27 999.03 933.20 994.45 938.96
  Q 970.10 969.54 938.26 995.76
  Q 937.64 996.26 922.01 1008.02
  C 901.78 1023.25 880.83 1034.10 858.38 1044.33
  Q 841.40 1052.07 819.60 1058.79
  Q 799.62 1064.96 780.68 1067.88
  Q 760.28 1071.02 752.49 1071.46
  C 740.21 1072.17 730.91 1073.18 721.49 1072.95
  Q 702.07 1072.47 691.26 1071.63
  Q 662.74 1069.43 634.09 1061.80
  Q 616.45 1057.11 604.03 1052.67
  Q 582.98 1045.14 563.14 1034.88
  C 547.20 1026.62 531.84 1017.92 518.92 1008.10
  Q 506.03 998.31 498.18 992.33
  Q 493.55 988.79 480.65 976.36
  Q 463.14 959.47 451.98 945.82
  Q 450.42 943.91 438.28 928.43
  Q 431.77 920.12 426.91 911.92
  C 421.72 903.15 415.72 893.49 411.08 884.17
  Q 405.05 872.06 402.86 867.40
  Q 381.23 821.58 374.91 771.45
  Q 373.67 761.67 372.80 746.01
  Q 371.71 726.42 371.84 720.50
  Q 372.19 704.49 372.38 695.67
  C 372.63 684.35 374.14 671.70 376.21 662.23
  C 378.00 654.06 378.85 647.88 380.98 640.04
  Q 386.49 619.79 393.42 601.31
  Q 395.38 596.08 396.95 592.48
  C 400.49 584.39 402.88 577.95 406.71 570.88
  Q 415.00 555.56 417.95 550.21
  C 423.13 540.85 430.00 530.87 434.26 525.00
  Q 441.76 514.67 453.18 500.14
  C 458.77 493.03 463.26 488.57 470.29 481.23
  C 474.92 476.38 480.01 471.93 484.45 467.61
  Q 490.30 461.94 495.40 457.77
  Q 514.89 441.83 531.33 431.58
  Q 545.52 422.72 563.79 413.28
  Q 602.05 393.50 643.29 384.38
  Q 656.76 381.40 679.15 378.30
  C 690.85 376.68 705.37 376.11 714.75 375.90
  Q 729.65 375.57 753.49 377.57
  Q 763.30 378.39 786.93 382.46
  C 796.36 384.08 808.14 387.33 818.57 390.22
  Q 848.00 398.38 878.32 414.16
  Q 894.78 422.73 911.74 433.29
  C 916.77 436.42 921.87 440.34 925.85 443.17
  C 943.95 456.07 960.41 471.13 976.87 488.76
  Q 985.71 498.22 994.98 510.62
  Q 1006.28 525.73 1011.57 533.40
  Q 1029.93 560.03 1043.59 593.46
  Q 1051.67 613.24 1055.88 628.85
  A 1.19 1.16 -87.7 0 0 1056.58 629.63
  Q 1057.91 630.14 1060.01 630.15
  Q 1077.03 630.25 1095.50 630.15
  Q 1097.69 630.14 1099.96 629.81
  A 0.57 0.56 -19.2 0 0 1100.37 628.97
  Z
  M 1004.65 819.06
  Q 1002.43 818.79 1000.25 818.76
  Q 985.98 818.61 971.75 818.60
  Q 965.34 818.59 960.28 818.90
  A 1.65 1.63 9.3 0 0 958.88 819.89
  C 951.42 837.17 942.49 854.15 931.65 869.54
  Q 924.79 879.28 923.08 881.33
  Q 908.24 898.99 897.19 909.43
  Q 873.57 931.75 843.88 948.86
  C 830.87 956.36 818.86 961.30 804.95 966.45
  Q 783.62 974.35 761.99 977.64
  Q 730.31 982.47 693.05 979.35
  C 665.40 977.04 637.50 968.02 612.40 956.69
  Q 608.28 954.83 602.31 951.55
  C 593.06 946.46 584.01 941.28 574.38 934.62
  Q 568.76 930.72 561.13 924.46
  Q 550.68 915.88 548.28 913.72
  Q 528.76 896.09 512.36 873.72
  Q 496.86 852.59 487.83 832.00
  Q 477.69 808.91 473.21 793.55
  Q 469.08 779.39 467.14 766.23
  Q 462.14 732.29 464.57 699.25
  Q 465.64 684.59 467.58 673.06
  Q 469.50 661.62 474.50 647.67
  Q 481.29 628.70 483.79 623.04
  Q 491.41 605.77 506.77 581.99
  Q 512.01 573.87 519.66 564.77
  Q 532.04 550.04 533.64 548.39
  Q 544.11 537.59 551.05 531.81
  Q 564.17 520.91 566.61 519.11
  C 584.83 505.62 603.79 494.43 624.92 486.50
  Q 646.21 478.50 657.39 475.43
  Q 688.94 466.77 728.76 468.10
  Q 751.99 468.87 766.20 471.67
  Q 809.17 480.13 848.85 502.44
  Q 857.54 507.33 864.73 512.53
  C 888.25 529.53 910.22 549.58 927.24 573.28
  Q 930.63 578.01 935.12 584.62
  Q 948.82 604.80 958.21 627.77
  Q 959.18 630.14 962.15 630.15
  Q 982.84 630.21 999.01 630.16
  Q 1002.13 630.15 1004.71 629.82
  A 0.50 0.50 0.0 0 0 1005.06 629.04
  Q 1004.14 627.69 1003.69 626.03
  C 1002.02 620.05 999.44 614.70 997.47 609.68
  C 991.27 593.95 983.12 578.64 973.38 562.67
  Q 966.52 551.42 958.64 541.66
  C 943.72 523.20 927.35 505.75 908.97 490.78
  Q 890.31 475.59 870.30 464.20
  C 844.10 449.29 816.17 438.29 786.78 431.92
  Q 776.29 429.64 767.75 428.51
  C 760.72 427.58 754.45 426.42 748.73 426.03
  Q 728.76 424.71 710.89 425.19
  Q 692.98 425.68 673.27 428.89
  Q 649.88 432.69 631.92 437.98
  Q 583.83 452.14 541.03 484.56
  Q 528.12 494.34 522.27 499.81
  Q 509.24 511.98 497.85 524.10
  Q 491.75 530.59 479.26 546.21
  Q 472.09 555.17 465.36 566.65
  Q 455.68 583.16 453.21 588.20
  Q 443.71 607.58 440.09 618.04
  Q 434.07 635.44 431.60 644.53
  Q 428.02 657.70 424.86 673.59
  C 423.77 679.05 423.53 684.43 422.56 690.07
  Q 421.78 694.61 421.28 702.48
  Q 419.71 727.07 421.87 751.34
  C 422.30 756.09 423.22 760.89 423.68 765.95
  Q 424.06 770.20 425.33 776.83
  Q 428.13 791.45 431.91 805.61
  Q 441.75 842.46 461.44 874.56
  C 465.48 881.14 469.77 888.22 474.00 893.94
  C 479.03 900.72 481.98 905.42 486.43 910.71
  Q 498.30 924.83 507.78 934.78
  C 514.96 942.31 524.30 950.43 530.93 956.30
  Q 542.43 966.49 559.00 977.00
  C 584.34 993.10 610.85 1005.13 638.95 1012.57
  Q 652.85 1016.25 655.14 1016.71
  Q 688.89 1023.37 712.51 1023.89
  C 731.48 1024.32 749.06 1022.47 767.25 1020.02
  C 779.62 1018.36 790.55 1015.10 808.78 1010.30
  Q 818.35 1007.78 835.38 1000.87
  Q 845.84 996.63 849.03 995.02
  Q 866.85 986.07 883.14 975.93
  Q 896.84 967.40 912.94 953.36
  C 930.07 938.44 946.01 922.31 958.78 905.05
  C 973.51 885.13 986.74 863.50 996.85 839.86
  Q 998.69 835.55 1004.96 819.58
  A 0.38 0.38 0.0 0 0 1004.65 819.06
  Z
  M 906.34 629.18
  C 903.28 624.63 900.83 618.69 897.34 613.53
  Q 883.13 592.51 868.48 577.78
  Q 830.55 539.63 778.12 524.14
  Q 772.19 522.38 763.36 520.67
  Q 753.45 518.75 748.42 518.18
  C 739.50 517.19 733.11 516.02 725.82 516.01
  Q 712.46 516.00 709.31 516.38
  C 693.12 518.30 680.76 519.53 666.00 523.53
  Q 641.29 530.22 616.85 543.88
  Q 600.61 552.97 587.59 564.34
  C 581.17 569.95 573.47 576.40 567.53 582.98
  Q 544.54 608.46 530.03 640.34
  C 527.81 645.22 526.44 649.77 524.64 654.38
  Q 522.70 659.35 521.08 665.10
  Q 510.00 704.49 513.46 744.61
  Q 514.24 753.64 515.81 761.16
  Q 517.60 769.75 519.54 777.47
  Q 526.98 807.03 543.63 832.94
  Q 554.08 849.19 564.69 861.09
  C 575.77 873.50 587.92 883.83 599.34 892.64
  C 616.73 906.06 635.82 914.85 657.41 921.85
  Q 679.75 929.10 699.26 930.65
  Q 705.19 931.12 711.09 931.52
  C 720.07 932.14 730.02 931.68 737.43 931.13
  Q 758.83 929.53 778.62 923.34
  C 794.48 918.38 811.16 912.10 825.55 903.06
  Q 849.43 888.07 867.43 870.17
  Q 884.01 853.68 898.29 831.24
  C 900.75 827.35 901.94 823.25 904.78 820.20
  A 0.86 0.86 0.0 0 0 904.16 818.75
  Q 878.81 818.39 858.76 818.70
  Q 856.20 818.74 854.21 819.76
  A 1.99 1.95 -84.2 0 0 853.55 820.31
  C 828.85 852.90 793.31 877.64 753.12 886.39
  Q 747.26 887.67 735.74 888.69
  Q 700.44 891.83 667.48 880.99
  C 663.23 879.59 658.96 877.44 655.28 875.99
  Q 650.74 874.21 646.38 871.65
  Q 629.91 861.98 621.04 854.94
  Q 601.96 839.79 586.38 818.37
  Q 576.34 804.58 569.03 787.72
  C 562.29 772.19 558.27 755.84 556.91 739.15
  Q 555.68 724.03 556.28 711.85
  Q 557.58 685.19 568.48 660.68
  C 579.42 636.10 596.38 614.51 617.35 596.61
  C 632.81 583.41 650.49 574.96 669.95 568.24
  Q 682.08 564.05 696.37 562.15
  Q 718.47 559.22 738.73 561.31
  Q 754.57 562.96 766.09 566.44
  Q 781.05 570.96 792.06 576.49
  Q 809.66 585.33 823.97 597.28
  Q 840.26 610.90 853.99 628.88
  A 1.87 1.85 82.3 0 0 854.74 629.46
  Q 856.18 630.07 858.75 630.10
  Q 883.91 630.37 905.91 630.00
  A 0.53 0.53 0.0 0 0 906.34 629.18
  Z
  M 692.19 707.71
  Q 701.77 697.35 713.27 688.86
  A 0.83 0.82 50.0 0 0 713.37 687.63
  Q 709.95 684.10 705.67 680.64
  C 691.62 669.31 674.53 664.24 656.40 665.93
  C 640.21 667.44 626.22 672.73 614.12 683.48
  C 602.61 693.70 596.65 707.36 595.08 722.42
  C 592.72 745.17 599.32 765.94 616.83 780.85
  C 625.42 788.15 636.87 792.59 648.32 795.19
  Q 653.12 796.28 658.63 796.35
  Q 667.62 796.46 668.96 796.19
  Q 677.96 794.39 681.93 793.18
  C 692.78 789.87 701.94 783.68 710.26 775.76
  Q 710.71 775.33 712.12 775.16
  A 0.40 0.40 0.0 0 1 712.53 775.71
  L 705.49 793.02
  A 0.52 0.52 0.0 0 0 705.97 793.73
  L 738.76 793.73
  A 0.98 0.98 0.0 0 0 739.68 793.08
  L 747.64 770.73
  A 2.41 2.40 -80.1 0 1 749.90 769.13
  L 800.11 769.13
  A 1.07 1.07 0.0 0 1 801.16 770.01
  Q 801.95 774.18 802.99 777.03
  Q 804.75 781.84 809.09 793.17
  A 0.98 0.97 -10.5 0 0 810.00 793.79
  L 843.97 793.79
  A 0.66 0.65 77.5 0 0 844.56 792.86
  C 843.29 790.10 841.20 786.82 839.66 783.30
  Q 828.75 758.39 820.19 736.75
  C 810.97 713.39 802.02 692.73 792.24 668.58
  A 0.82 0.82 0.0 0 0 791.48 668.07
  L 757.85 668.07
  A 1.26 1.26 0.0 0 0 756.67 668.88
  C 747.87 691.77 737.71 716.18 723.63 750.69
  C 720.62 758.07 717.98 766.07 714.09 773.08
  A 0.85 0.84 -52.8 0 1 712.76 773.27
  C 709.31 769.76 706.89 767.35 703.57 764.79
  Q 696.62 759.43 692.40 755.26
  A 0.69 0.68 -43.8 0 0 691.45 755.25
  C 685.64 760.64 679.02 765.27 670.97 766.69
  C 655.87 769.36 639.29 764.76 632.38 749.78
  Q 624.41 732.52 630.99 714.93
  Q 634.84 704.63 644.38 699.13
  Q 653.13 694.09 664.70 694.82
  Q 680.41 695.80 691.32 707.71
  A 0.60 0.59 -44.7 0 0 692.19 707.71
  Z
  M 855.94 757.57
  A 0.45 0.45 0.0 0 0 855.28 757.77
  L 845.77 781.17
  A 1.72 1.71 22.8 0 0 846.68 783.39
  Q 852.48 785.88 855.90 787.51
  C 864.43 791.60 872.89 793.35 882.45 795.02
  Q 891.31 796.56 899.11 795.91
  C 912.56 794.79 924.54 791.72 935.33 783.36
  C 944.06 776.58 946.70 768.11 948.17 757.44
  Q 948.59 754.34 947.74 749.85
  C 945.56 738.44 939.32 731.69 929.17 726.91
  Q 922.32 723.67 919.40 722.64
  Q 914.73 721.00 897.47 716.51
  Q 891.85 715.05 888.87 713.90
  C 885.10 712.45 878.23 707.95 879.74 703.16
  C 882.70 693.81 894.75 692.34 903.49 693.14
  Q 915.86 694.26 928.51 699.58
  Q 930.10 700.25 932.09 701.62
  A 0.95 0.94 -63.3 0 0 933.52 701.14
  Q 937.74 688.87 943.74 678.26
  A 1.68 1.67 28.1 0 0 943.03 675.93
  C 925.44 667.14 905.48 663.36 886.03 666.80
  C 872.90 669.13 858.98 676.38 852.18 687.95
  Q 847.81 695.38 847.29 705.02
  Q 846.03 728.51 866.79 737.16
  Q 876.21 741.08 881.22 742.26
  Q 893.48 745.14 899.59 746.56
  C 905.83 748.01 917.89 751.82 916.56 760.42
  C 915.01 770.52 897.45 770.36 890.62 770.03
  Q 883.82 769.71 875.92 766.98
  Q 863.85 762.81 855.94 757.57
  Z
  M 1066.06 668.15
  A 0.86 0.85 -10.5 0 0 1065.26 669.31
  L 1113.36 792.45
  A 2.09 2.09 0.0 0 0 1115.31 793.78
  L 1147.78 793.78
  A 1.34 1.32 -77.3 0 0 1148.98 793.01
  Q 1151.18 788.30 1154.29 779.21
  Q 1156.24 773.51 1159.49 765.45
  Q 1179.59 715.50 1196.83 668.44
  A 0.26 0.25 -80.3 0 0 1196.59 668.10
  L 1166.84 668.10
  A 1.20 1.19 9.6 0 0 1165.71 668.90
  Q 1155.42 698.19 1142.48 730.17
  C 1139.55 737.41 1136.95 746.31 1133.96 752.80
  A 0.71 0.70 -47.9 0 1 1132.71 752.87
  Q 1130.71 749.49 1129.25 745.28
  Q 1125.73 735.15 1121.86 726.90
  Q 1120.32 723.60 1115.63 710.20
  C 1110.41 695.27 1105.55 682.70 1101.09 668.88
  A 1.06 1.05 80.8 0 0 1100.09 668.15
  L 1066.06 668.15
  Z
  M 1050.49 717.21
  L 996.30 717.21
  A 0.84 0.83 0.0 0 1 995.46 716.38
  L 995.46 695.93
  A 0.85 0.85 0.0 0 1 996.31 695.08
  L 1057.17 695.08
  A 0.45 0.45 0.0 0 0 1057.62 694.63
  L 1057.62 668.58
  A 0.51 0.51 0.0 0 0 1057.11 668.07
  L 962.76 668.07
  A 0.61 0.61 0.0 0 0 962.15 668.68
  L 962.15 793.20
  A 0.59 0.59 0.0 0 0 962.74 793.79
  L 1058.87 793.79
  A 0.90 0.90 0.0 0 0 1059.77 792.83
  Q 1058.89 779.59 1059.87 767.82
  A 0.59 0.59 0.0 0 0 1059.28 767.18
  L 996.43 767.18
  A 0.77 0.77 0.0 0 1 995.66 766.41
  L 995.66 743.68
  A 0.99 0.98 -0.0 0 1 996.65 742.70
  L 1050.32 742.70
  A 0.63 0.62 -90.0 0 0 1050.94 742.07
  L 1050.94 717.66
  A 0.45 0.45 0.0 0 0 1050.49 717.21
  Z
  M 1312.80 792.88
  Q 1302.19 768.81 1294.74 749.93
  C 1283.61 721.71 1272.74 696.31 1261.59 668.89
  A 1.16 1.16 0.0 0 0 1260.51 668.16
  L 1228.49 668.16
  A 1.78 1.76 11.1 0 0 1226.85 669.25
  Q 1211.22 706.62 1211.19 706.68
  Q 1205.86 718.83 1195.97 744.24
  Q 1185.98 769.92 1176.76 793.41
  A 0.64 0.64 0.0 0 0 1177.43 794.29
  C 1178.81 794.14 1180.02 793.79 1181.55 793.78
  Q 1193.41 793.70 1208.00 793.73
  A 1.55 1.53 -79.8 0 0 1209.46 792.70
  L 1217.51 770.09
  A 1.03 1.02 9.6 0 1 1218.48 769.41
  L 1269.37 769.41
  A 1.22 1.21 80.0 0 1 1270.51 770.22
  L 1278.74 793.37
  A 0.67 0.67 0.0 0 0 1279.37 793.81
  L 1312.19 793.81
  A 0.67 0.66 -11.9 0 0 1312.80 792.88
  Z"
/>
<path fill="#1757f2" d="
  M 1287.80 818.65
  A 0.70 0.70 0.0 0 1 1288.48 819.51
  Q 1287.28 824.63 1283.66 842.92
  C 1282.58 848.39 1280.26 855.02 1278.56 861.73
  Q 1269.33 898.29 1267.20 904.72
  C 1266.06 908.19 1264.31 912.18 1263.11 915.88
  C 1257.60 932.81 1252.83 942.79 1243.53 963.83
  Q 1234.34 984.64 1222.24 1006.30
  Q 1181.11 1079.93 1120.12 1139.60
  Q 1105.64 1153.77 1084.47 1171.18
  Q 1024.87 1220.20 954.16 1250.58
  C 936.40 1258.21 918.21 1265.78 900.38 1271.10
  C 886.64 1275.20 878.04 1278.16 866.81 1280.79
  Q 863.08 1281.67 850.86 1284.79
  Q 845.69 1286.11 829.61 1289.51
  C 812.96 1293.02 795.60 1295.68 780.24 1296.93
  Q 772.23 1297.59 763.99 1298.24
  C 751.45 1299.22 736.80 1299.59 729.00 1299.74
  Q 696.12 1300.38 663.25 1297.40
  Q 636.61 1294.97 613.74 1290.47
  Q 590.98 1285.98 563.36 1278.64
  Q 540.45 1272.55 514.26 1262.28
  Q 487.62 1251.83 462.07 1239.40
  Q 452.38 1234.68 429.60 1221.86
  Q 412.82 1212.42 398.10 1202.23
  Q 377.38 1187.88 366.83 1179.67
  Q 341.08 1159.61 316.04 1134.52
  Q 297.66 1116.10 285.79 1102.62
  Q 257.16 1070.10 237.66 1038.45
  Q 219.56 1009.06 213.27 996.50
  Q 210.30 990.55 196.29 961.91
  C 192.59 954.36 189.65 946.04 185.75 937.07
  Q 179.75 923.28 175.10 907.85
  C 173.07 901.10 170.61 895.24 169.06 889.73
  Q 162.76 867.29 160.97 857.76
  Q 158.09 842.41 157.35 839.41
  Q 154.68 828.67 153.61 821.08
  Q 153.07 817.27 149.74 796.91
  Q 147.84 785.32 146.89 772.60
  Q 144.98 746.80 144.64 722.99
  Q 144.05 681.66 150.52 639.76
  Q 156.64 600.10 170.11 553.09
  Q 171.35 548.76 178.11 530.01
  Q 182.15 518.78 187.00 507.29
  Q 196.17 485.55 204.51 468.44
  Q 211.60 453.88 221.66 436.15
  Q 231.08 419.57 246.13 397.50
  C 269.34 363.48 296.11 332.94 326.18 304.41
  Q 340.39 290.94 354.90 279.22
  Q 368.05 268.59 385.29 256.05
  Q 390.27 252.43 412.26 238.29
  Q 427.66 228.38 448.73 217.02
  Q 460.04 210.92 473.08 205.01
  Q 497.54 193.92 497.79 193.82
  C 509.17 189.09 527.37 181.65 543.53 177.10
  Q 565.82 170.81 580.63 166.89
  Q 588.94 164.69 596.27 163.27
  C 617.41 159.16 639.30 154.81 654.79 152.92
  Q 691.25 148.45 739.26 149.49
  Q 747.44 149.67 759.74 150.65
  Q 771.64 151.59 773.38 151.64
  Q 779.80 151.84 786.94 153.10
  C 797.31 154.92 817.39 157.09 831.50 160.11
  C 841.52 162.25 849.92 163.48 858.93 165.82
  Q 894.90 175.18 907.70 179.81
  Q 946.41 193.81 971.58 206.21
  Q 1004.88 222.61 1029.70 238.86
  Q 1042.46 247.22 1046.30 249.71
  Q 1054.39 254.98 1062.53 261.07
  Q 1082.04 275.66 1086.20 279.09
  Q 1107.50 296.67 1127.42 316.42
  Q 1135.73 324.66 1141.80 331.37
  C 1147.86 338.07 1154.05 344.33 1160.28 351.95
  Q 1171.45 365.62 1177.05 373.20
  C 1184.07 382.73 1194.47 397.09 1202.23 408.96
  Q 1229.56 450.75 1249.48 497.01
  C 1258.37 517.67 1267.39 541.19 1273.91 565.29
  Q 1281.53 593.42 1287.22 621.11
  C 1287.80 623.93 1287.84 626.88 1288.89 629.07
  A 0.75 0.75 0.0 0 1 1288.21 630.15
  L 1246.84 630.15
  A 1.26 1.25 -1.7 0 1 1245.58 628.97
  C 1245.22 623.07 1242.85 617.17 1241.91 612.14
  Q 1241.26 608.69 1238.44 596.31
  Q 1236.77 588.97 1234.21 581.62
  C 1232.07 575.49 1230.88 568.69 1228.51 562.00
  C 1224.20 549.81 1219.89 536.75 1214.19 523.36
  Q 1206.01 504.12 1200.27 492.76
  Q 1194.00 480.35 1182.35 460.16
  Q 1162.53 425.81 1137.96 394.16
  C 1131.32 385.62 1122.74 375.85 1116.33 368.54
  Q 1103.09 353.45 1086.90 338.64
  C 1081.03 333.27 1076.18 328.19 1070.00 323.04
  Q 1045.70 302.82 1040.31 298.79
  Q 1011.25 277.06 970.07 254.30
  Q 963.86 250.87 956.96 247.74
  C 951.32 245.19 946.19 242.14 939.41 239.13
  C 920.51 230.73 901.93 223.28 882.63 217.47
  C 874.97 215.16 867.08 212.29 859.41 210.37
  C 848.38 207.61 839.53 204.97 828.87 202.75
  Q 811.90 199.23 794.49 196.29
  C 787.40 195.09 780.52 195.01 773.37 193.92
  Q 762.63 192.29 749.00 191.60
  Q 712.87 189.78 679.88 192.13
  Q 676.09 192.40 665.52 194.04
  C 659.45 194.98 652.31 195.13 646.38 196.11
  C 620.15 200.46 598.06 204.39 574.30 211.90
  Q 562.45 215.65 546.18 220.64
  C 531.73 225.08 514.64 233.08 503.94 237.53
  C 495.66 240.98 489.16 245.16 480.06 249.26
  Q 475.43 251.36 474.28 252.02
  C 468.47 255.37 461.73 258.61 456.14 261.94
  Q 434.12 275.06 414.91 288.16
  Q 397.55 300.00 378.36 315.93
  Q 363.70 328.10 350.10 341.62
  Q 332.66 358.95 323.65 369.15
  Q 301.91 393.74 291.70 408.19
  Q 275.32 431.36 267.10 444.36
  C 256.32 461.39 247.91 477.78 238.40 496.70
  C 229.72 513.98 222.87 531.17 216.21 549.41
  Q 211.46 562.41 208.70 573.26
  Q 206.67 581.26 203.13 592.38
  Q 199.25 604.57 196.44 620.67
  Q 193.73 636.19 192.45 647.33
  Q 191.87 652.31 189.91 674.17
  Q 185.75 720.60 189.69 767.75
  Q 190.92 782.47 191.93 791.80
  Q 196.49 833.96 209.32 874.71
  C 213.02 886.45 215.04 893.63 218.55 902.66
  C 226.59 923.38 233.19 940.15 242.41 958.22
  C 248.43 970.00 251.90 977.85 257.90 987.76
  Q 268.76 1005.72 277.74 1019.50
  Q 281.07 1024.61 294.89 1043.62
  Q 297.18 1046.78 316.95 1070.84
  Q 323.56 1078.88 329.20 1084.63
  C 334.82 1090.37 340.39 1096.84 346.10 1102.32
  Q 375.35 1130.37 399.29 1148.45
  Q 445.66 1183.46 497.60 1207.87
  Q 530.74 1223.45 564.04 1233.42
  C 575.03 1236.72 585.71 1240.00 595.83 1242.41
  Q 637.47 1252.32 678.33 1255.92
  C 694.97 1257.39 716.68 1257.16 730.56 1257.09
  Q 752.70 1256.98 779.21 1254.26
  Q 788.16 1253.34 794.86 1252.09
  C 800.98 1250.95 808.53 1250.21 815.72 1248.90
  Q 833.88 1245.57 853.36 1240.43
  Q 861.13 1238.38 864.10 1237.39
  Q 872.10 1234.74 874.77 1234.06
  Q 881.60 1232.32 887.59 1230.08
  C 893.44 1227.88 898.71 1226.66 904.60 1224.35
  Q 959.73 1202.70 1005.28 1173.77
  Q 1020.64 1164.02 1040.55 1149.28
  Q 1055.19 1138.45 1083.35 1113.27
  Q 1086.56 1110.39 1088.30 1108.36
  C 1090.34 1105.98 1092.85 1104.23 1095.04 1101.99
  Q 1125.77 1070.66 1148.56 1040.30
  Q 1158.27 1027.36 1174.69 1001.70
  Q 1176.60 998.70 1187.24 980.01
  Q 1196.74 963.30 1206.44 941.50
  Q 1232.07 883.92 1245.23 819.54
  A 1.11 1.11 0.0 0 1 1246.32 818.65
  L 1287.80 818.65
  Z"
/>
<path fill="#1757f2" d="
  M 1195.07 629.12
  A 0.74 0.74 0.0 0 1 1194.39 630.16
  L 1152.63 630.16
  A 1.60 1.60 0.0 0 1 1151.07 628.91
  C 1149.72 622.76 1147.78 614.05 1145.30 605.75
  Q 1141.11 591.71 1139.21 586.00
  Q 1134.52 571.84 1124.85 549.65
  Q 1115.35 527.88 1106.59 512.89
  Q 1093.73 490.88 1086.44 479.79
  Q 1078.46 467.64 1065.47 451.02
  Q 1038.19 416.12 1004.62 388.13
  Q 994.88 380.01 977.90 367.59
  C 960.17 354.61 940.87 343.10 923.07 333.52
  Q 911.88 327.49 896.00 320.66
  Q 859.45 304.93 820.78 295.20
  Q 817.21 294.31 788.98 289.45
  Q 771.33 286.41 756.92 285.51
  C 735.89 284.19 719.48 283.25 700.86 284.50
  C 691.69 285.12 684.20 284.97 675.82 285.96
  Q 642.84 289.87 621.07 294.58
  C 608.06 297.39 595.39 301.66 579.98 306.81
  Q 542.04 319.51 502.90 341.39
  Q 442.17 375.33 395.75 426.00
  Q 384.81 437.94 367.47 460.16
  Q 358.28 471.94 349.02 487.03
  Q 333.99 511.54 332.19 514.95
  Q 321.44 535.30 316.41 547.10
  C 309.74 562.75 303.70 575.96 299.20 590.97
  Q 296.22 600.87 292.14 615.65
  C 289.75 624.29 288.28 632.82 286.34 642.03
  C 284.28 651.78 282.44 664.50 281.83 675.66
  Q 280.22 705.05 280.07 716.50
  Q 279.81 736.14 281.24 759.19
  C 283.44 794.71 290.75 829.78 302.22 863.26
  Q 308.98 883.00 317.10 901.67
  Q 329.32 929.80 346.29 956.50
  Q 358.50 975.70 378.05 1000.87
  C 383.10 1007.38 389.12 1013.60 395.18 1020.64
  Q 396.63 1022.33 402.04 1028.09
  Q 434.08 1062.24 475.65 1090.13
  Q 502.80 1108.34 528.91 1120.81
  Q 593.15 1151.50 662.36 1161.65
  Q 688.02 1165.42 712.39 1165.82
  Q 737.36 1166.22 762.56 1163.82
  Q 763.30 1163.75 786.07 1160.60
  Q 798.28 1158.92 809.43 1156.42
  Q 832.80 1151.18 843.62 1147.87
  Q 848.94 1146.24 868.24 1139.47
  Q 881.96 1134.66 892.50 1130.05
  Q 914.69 1120.34 927.15 1113.37
  C 945.11 1103.34 964.50 1091.57 981.00 1079.25
  Q 998.94 1065.86 1016.52 1050.02
  Q 1020.99 1046.00 1034.71 1032.20
  C 1048.42 1018.41 1060.58 1003.64 1072.17 988.93
  Q 1084.46 973.31 1095.51 955.02
  C 1100.65 946.51 1106.91 936.65 1112.20 926.23
  Q 1119.74 911.38 1125.75 897.86
  Q 1132.10 883.59 1137.07 868.54
  Q 1144.87 844.91 1150.53 819.39
  A 0.95 0.94 6.0 0 1 1151.46 818.65
  L 1194.52 818.65
  A 0.75 0.74 6.5 0 1 1195.25 819.56
  Q 1185.94 861.19 1170.97 900.24
  C 1166.88 910.92 1162.77 919.72 1157.40 931.10
  Q 1129.12 990.99 1085.08 1041.35
  C 1065.56 1063.67 1043.77 1085.11 1020.20 1103.43
  Q 1005.49 1114.87 997.82 1120.29
  Q 976.70 1135.25 959.04 1145.03
  C 945.41 1152.59 929.75 1161.05 913.87 1167.83
  Q 882.45 1181.24 850.31 1190.06
  Q 828.06 1196.17 799.91 1201.47
  C 790.00 1203.34 776.89 1204.61 770.17 1205.33
  Q 750.72 1207.43 726.25 1207.63
  Q 696.01 1207.89 668.01 1205.37
  Q 647.92 1203.56 625.59 1198.64
  Q 598.61 1192.70 577.73 1186.51
  C 557.67 1180.56 536.20 1172.62 515.48 1162.71
  Q 494.25 1152.57 480.95 1145.05
  Q 463.85 1135.39 442.41 1120.21
  Q 434.11 1114.34 418.14 1101.71
  Q 387.27 1077.32 364.80 1052.21
  Q 345.54 1030.67 332.10 1012.42
  Q 328.21 1007.14 321.36 997.31
  Q 317.16 991.30 313.48 985.46
  C 310.13 980.15 306.79 975.22 303.42 969.35
  Q 293.39 951.88 290.55 946.47
  Q 270.84 908.89 258.95 869.06
  C 256.01 859.20 252.92 850.00 251.02 840.69
  C 248.30 827.34 245.14 815.15 242.88 801.87
  C 239.50 782.04 237.18 762.39 236.83 741.74
  C 236.55 724.92 236.32 703.46 237.80 685.26
  Q 241.37 641.33 253.29 598.51
  Q 258.25 580.70 264.97 561.21
  Q 276.01 529.19 291.61 500.08
  Q 296.83 490.33 305.31 475.91
  C 317.12 455.82 331.04 436.99 345.40 418.64
  Q 356.51 404.43 370.14 390.65
  Q 390.95 369.61 394.77 366.27
  C 401.63 360.29 411.53 351.38 420.08 344.95
  Q 435.63 333.26 444.81 326.82
  Q 489.18 295.71 541.62 274.38
  Q 546.94 272.21 568.10 265.02
  Q 582.75 260.03 594.99 256.97
  Q 627.83 248.76 649.75 245.02
  Q 658.35 243.56 680.37 241.79
  Q 692.86 240.79 711.17 240.77
  Q 743.73 240.73 751.02 241.20
  Q 778.79 242.97 793.28 245.23
  Q 796.95 245.80 808.50 248.04
  C 853.93 256.86 898.30 271.32 939.22 292.33
  C 955.78 300.84 971.41 309.50 986.59 319.92
  C 999.51 328.80 1015.42 340.10 1028.73 351.25
  Q 1070.25 386.02 1101.93 426.05
  Q 1121.13 450.30 1138.90 480.85
  C 1145.86 492.80 1153.44 508.26 1158.28 517.92
  Q 1160.84 523.03 1166.83 537.22
  Q 1171.32 547.85 1174.48 556.87
  Q 1183.32 582.16 1188.14 599.61
  Q 1189.70 605.23 1193.59 622.41
  C 1194.01 624.27 1194.15 627.07 1195.07 629.12
  Z"
/>
<path fill="#1757f2" d="
  M 1100.37 628.97
  A 0.57 0.56 -19.2 0 1 1099.96 629.81
  Q 1097.69 630.14 1095.50 630.15
  Q 1077.03 630.25 1060.01 630.15
  Q 1057.91 630.14 1056.58 629.63
  A 1.19 1.16 -87.7 0 1 1055.88 628.85
  Q 1051.67 613.24 1043.59 593.46
  Q 1029.93 560.03 1011.57 533.40
  Q 1006.28 525.73 994.98 510.62
  Q 985.71 498.22 976.87 488.76
  C 960.41 471.13 943.95 456.07 925.85 443.17
  C 921.87 440.34 916.77 436.42 911.74 433.29
  Q 894.78 422.73 878.32 414.16
  Q 848.00 398.38 818.57 390.22
  C 808.14 387.33 796.36 384.08 786.93 382.46
  Q 763.30 378.39 753.49 377.57
  Q 729.65 375.57 714.75 375.90
  C 705.37 376.11 690.85 376.68 679.15 378.30
  Q 656.76 381.40 643.29 384.38
  Q 602.05 393.50 563.79 413.28
  Q 545.52 422.72 531.33 431.58
  Q 514.89 441.83 495.40 457.77
  Q 490.30 461.94 484.45 467.61
  C 480.01 471.93 474.92 476.38 470.29 481.23
  C 463.26 488.57 458.77 493.03 453.18 500.14
  Q 441.76 514.67 434.26 525.00
  C 430.00 530.87 423.13 540.85 417.95 550.21
  Q 415.00 555.56 406.71 570.88
  C 402.88 577.95 400.49 584.39 396.95 592.48
  Q 395.38 596.08 393.42 601.31
  Q 386.49 619.79 380.98 640.04
  C 378.85 647.88 378.00 654.06 376.21 662.23
  C 374.14 671.70 372.63 684.35 372.38 695.67
  Q 372.19 704.49 371.84 720.50
  Q 371.71 726.42 372.80 746.01
  Q 373.67 761.67 374.91 771.45
  Q 381.23 821.58 402.86 867.40
  Q 405.05 872.06 411.08 884.17
  C 415.72 893.49 421.72 903.15 426.91 911.92
  Q 431.77 920.12 438.28 928.43
  Q 450.42 943.91 451.98 945.82
  Q 463.14 959.47 480.65 976.36
  Q 493.55 988.79 498.18 992.33
  Q 506.03 998.31 518.92 1008.10
  C 531.84 1017.92 547.20 1026.62 563.14 1034.88
  Q 582.98 1045.14 604.03 1052.67
  Q 616.45 1057.11 634.09 1061.80
  Q 662.74 1069.43 691.26 1071.63
  Q 702.07 1072.47 721.49 1072.95
  C 730.91 1073.18 740.21 1072.17 752.49 1071.46
  Q 760.28 1071.02 780.68 1067.88
  Q 799.62 1064.96 819.60 1058.79
  Q 841.40 1052.07 858.38 1044.33
  C 880.83 1034.10 901.78 1023.25 922.01 1008.02
  Q 937.64 996.26 938.26 995.76
  Q 970.10 969.54 994.45 938.96
  C 999.03 933.20 1005.98 924.27 1010.98 916.87
  Q 1030.08 888.64 1043.61 855.37
  Q 1048.52 843.29 1049.35 840.64
  C 1051.77 832.96 1054.82 825.29 1056.32 819.58
  A 1.02 1.01 -82.7 0 1 1057.28 818.83
  Q 1074.46 818.44 1096.00 818.67
  Q 1098.85 818.71 1100.62 819.09
  A 0.50 0.50 0.0 0 1 1101.00 819.73
  Q 1099.36 824.97 1097.13 832.23
  Q 1087.52 863.42 1076.25 887.97
  Q 1074.99 890.72 1064.69 910.57
  C 1059.41 920.75 1051.33 933.19 1046.82 939.83
  Q 1041.43 947.77 1030.24 963.50
  Q 1026.64 968.56 1017.04 979.55
  Q 1000.26 998.78 979.79 1017.55
  Q 967.16 1029.13 952.49 1039.54
  Q 933.30 1053.15 923.38 1059.12
  Q 903.78 1070.91 881.23 1081.21
  Q 871.08 1085.85 847.86 1094.23
  Q 831.76 1100.04 813.51 1104.36
  Q 787.29 1110.56 768.36 1112.81
  Q 751.98 1114.76 725.50 1115.72
  Q 713.78 1116.14 689.52 1114.60
  Q 671.67 1113.47 653.77 1110.16
  Q 627.17 1105.23 607.72 1099.54
  Q 561.82 1086.10 518.04 1059.98
  C 509.03 1054.60 500.55 1048.38 490.42 1041.32
  Q 482.56 1035.84 468.47 1024.14
  Q 462.35 1019.05 442.13 999.22
  C 436.93 994.13 433.42 989.85 427.79 983.96
  C 415.42 971.02 406.67 958.41 393.36 939.65
  Q 391.90 937.60 383.25 923.54
  Q 377.84 914.76 373.89 907.00
  Q 357.85 875.46 349.75 851.33
  Q 339.35 820.34 333.71 786.85
  Q 331.68 774.81 330.64 763.24
  Q 328.98 744.59 328.84 739.50
  C 328.32 720.81 328.73 706.48 330.21 689.80
  Q 331.36 676.81 331.95 672.69
  Q 342.86 596.35 380.43 529.19
  Q 383.51 523.68 394.43 507.26
  Q 402.58 495.02 409.55 486.07
  Q 426.41 464.41 448.30 443.55
  Q 461.80 430.69 466.11 426.86
  C 483.17 411.66 501.88 398.96 521.76 386.78
  Q 533.83 379.38 548.81 372.19
  Q 573.26 360.45 599.83 351.57
  Q 616.83 345.89 634.28 342.36
  Q 637.39 341.73 656.39 338.17
  Q 669.81 335.66 678.61 334.84
  Q 707.13 332.19 732.45 332.92
  Q 739.64 333.12 756.03 334.17
  Q 767.70 334.92 779.49 336.73
  Q 798.65 339.66 817.23 344.07
  Q 819.91 344.71 834.24 349.00
  Q 844.40 352.04 851.04 354.52
  Q 877.98 364.59 899.62 375.45
  C 914.55 382.94 927.80 391.23 944.67 402.69
  Q 956.94 411.02 969.14 421.14
  Q 1011.61 456.39 1041.17 498.79
  Q 1052.11 514.47 1061.99 531.69
  Q 1072.24 549.57 1082.65 574.84
  Q 1086.74 584.78 1098.39 622.03
  C 1099.17 624.53 1099.13 626.87 1100.37 628.97
  Z"
/>
<path fill="#1757f2" d="
  M 1004.96 819.58
  Q 998.69 835.55 996.85 839.86
  C 986.74 863.50 973.51 885.13 958.78 905.05
  C 946.01 922.31 930.07 938.44 912.94 953.36
  Q 896.84 967.40 883.14 975.93
  Q 866.85 986.07 849.03 995.02
  Q 845.84 996.63 835.38 1000.87
  Q 818.35 1007.78 808.78 1010.30
  C 790.55 1015.10 779.62 1018.36 767.25 1020.02
  C 749.06 1022.47 731.48 1024.32 712.51 1023.89
  Q 688.89 1023.37 655.14 1016.71
  Q 652.85 1016.25 638.95 1012.57
  C 610.85 1005.13 584.34 993.10 559.00 977.00
  Q 542.43 966.49 530.93 956.30
  C 524.30 950.43 514.96 942.31 507.78 934.78
  Q 498.30 924.83 486.43 910.71
  C 481.98 905.42 479.03 900.72 474.00 893.94
  C 469.77 888.22 465.48 881.14 461.44 874.56
  Q 441.75 842.46 431.91 805.61
  Q 428.13 791.45 425.33 776.83
  Q 424.06 770.20 423.68 765.95
  C 423.22 760.89 422.30 756.09 421.87 751.34
  Q 419.71 727.07 421.28 702.48
  Q 421.78 694.61 422.56 690.07
  C 423.53 684.43 423.77 679.05 424.86 673.59
  Q 428.02 657.70 431.60 644.53
  Q 434.07 635.44 440.09 618.04
  Q 443.71 607.58 453.21 588.20
  Q 455.68 583.16 465.36 566.65
  Q 472.09 555.17 479.26 546.21
  Q 491.75 530.59 497.85 524.10
  Q 509.24 511.98 522.27 499.81
  Q 528.12 494.34 541.03 484.56
  Q 583.83 452.14 631.92 437.98
  Q 649.88 432.69 673.27 428.89
  Q 692.98 425.68 710.89 425.19
  Q 728.76 424.71 748.73 426.03
  C 754.45 426.42 760.72 427.58 767.75 428.51
  Q 776.29 429.64 786.78 431.92
  C 816.17 438.29 844.10 449.29 870.30 464.20
  Q 890.31 475.59 908.97 490.78
  C 927.35 505.75 943.72 523.20 958.64 541.66
  Q 966.52 551.42 973.38 562.67
  C 983.12 578.64 991.27 593.95 997.47 609.68
  C 999.44 614.70 1002.02 620.05 1003.69 626.03
  Q 1004.14 627.69 1005.06 629.04
  A 0.50 0.50 0.0 0 1 1004.71 629.82
  Q 1002.13 630.15 999.01 630.16
  Q 982.84 630.21 962.15 630.15
  Q 959.18 630.14 958.21 627.77
  Q 948.82 604.80 935.12 584.62
  Q 930.63 578.01 927.24 573.28
  C 910.22 549.58 888.25 529.53 864.73 512.53
  Q 857.54 507.33 848.85 502.44
  Q 809.17 480.13 766.20 471.67
  Q 751.99 468.87 728.76 468.10
  Q 688.94 466.77 657.39 475.43
  Q 646.21 478.50 624.92 486.50
  C 603.79 494.43 584.83 505.62 566.61 519.11
  Q 564.17 520.91 551.05 531.81
  Q 544.11 537.59 533.64 548.39
  Q 532.04 550.04 519.66 564.77
  Q 512.01 573.87 506.77 581.99
  Q 491.41 605.77 483.79 623.04
  Q 481.29 628.70 474.50 647.67
  Q 469.50 661.62 467.58 673.06
  Q 465.64 684.59 464.57 699.25
  Q 462.14 732.29 467.14 766.23
  Q 469.08 779.39 473.21 793.55
  Q 477.69 808.91 487.83 832.00
  Q 496.86 852.59 512.36 873.72
  Q 528.76 896.09 548.28 913.72
  Q 550.68 915.88 561.13 924.46
  Q 568.76 930.72 574.38 934.62
  C 584.01 941.28 593.06 946.46 602.31 951.55
  Q 608.28 954.83 612.40 956.69
  C 637.50 968.02 665.40 977.04 693.05 979.35
  Q 730.31 982.47 761.99 977.64
  Q 783.62 974.35 804.95 966.45
  C 818.86 961.30 830.87 956.36 843.88 948.86
  Q 873.57 931.75 897.19 909.43
  Q 908.24 898.99 923.08 881.33
  Q 924.79 879.28 931.65 869.54
  C 942.49 854.15 951.42 837.17 958.88 819.89
  A 1.65 1.63 9.3 0 1 960.28 818.90
  Q 965.34 818.59 971.75 818.60
  Q 985.98 818.61 1000.25 818.76
  Q 1002.43 818.79 1004.65 819.06
  A 0.38 0.38 0.0 0 1 1004.96 819.58
  Z"
/>
<path fill="#1757f2" d="
  M 906.34 629.18
  A 0.53 0.53 0.0 0 1 905.91 630.00
  Q 883.91 630.37 858.75 630.10
  Q 856.18 630.07 854.74 629.46
  A 1.87 1.85 82.3 0 1 853.99 628.88
  Q 840.26 610.90 823.97 597.28
  Q 809.66 585.33 792.06 576.49
  Q 781.05 570.96 766.09 566.44
  Q 754.57 562.96 738.73 561.31
  Q 718.47 559.22 696.37 562.15
  Q 682.08 564.05 669.95 568.24
  C 650.49 574.96 632.81 583.41 617.35 596.61
  C 596.38 614.51 579.42 636.10 568.48 660.68
  Q 557.58 685.19 556.28 711.85
  Q 555.68 724.03 556.91 739.15
  C 558.27 755.84 562.29 772.19 569.03 787.72
  Q 576.34 804.58 586.38 818.37
  Q 601.96 839.79 621.04 854.94
  Q 629.91 861.98 646.38 871.65
  Q 650.74 874.21 655.28 875.99
  C 658.96 877.44 663.23 879.59 667.48 880.99
  Q 700.44 891.83 735.74 888.69
  Q 747.26 887.67 753.12 886.39
  C 793.31 877.64 828.85 852.90 853.55 820.31
  A 1.99 1.95 -84.2 0 1 854.21 819.76
  Q 856.20 818.74 858.76 818.70
  Q 878.81 818.39 904.16 818.75
  A 0.86 0.86 0.0 0 1 904.78 820.20
  C 901.94 823.25 900.75 827.35 898.29 831.24
  Q 884.01 853.68 867.43 870.17
  Q 849.43 888.07 825.55 903.06
  C 811.16 912.10 794.48 918.38 778.62 923.34
  Q 758.83 929.53 737.43 931.13
  C 730.02 931.68 720.07 932.14 711.09 931.52
  Q 705.19 931.12 699.26 930.65
  Q 679.75 929.10 657.41 921.85
  C 635.82 914.85 616.73 906.06 599.34 892.64
  C 587.92 883.83 575.77 873.50 564.69 861.09
  Q 554.08 849.19 543.63 832.94
  Q 526.98 807.03 519.54 777.47
  Q 517.60 769.75 515.81 761.16
  Q 514.24 753.64 513.46 744.61
  Q 510.00 704.49 521.08 665.10
  Q 522.70 659.35 524.64 654.38
  C 526.44 649.77 527.81 645.22 530.03 640.34
  Q 544.54 608.46 567.53 582.98
  C 573.47 576.40 581.17 569.95 587.59 564.34
  Q 600.61 552.97 616.85 543.88
  Q 641.29 530.22 666.00 523.53
  C 680.76 519.53 693.12 518.30 709.31 516.38
  Q 712.46 516.00 725.82 516.01
  C 733.11 516.02 739.50 517.19 748.42 518.18
  Q 753.45 518.75 763.36 520.67
  Q 772.19 522.38 778.12 524.14
  Q 830.55 539.63 868.48 577.78
  Q 883.13 592.51 897.34 613.53
  C 900.83 618.69 903.28 624.63 906.34 629.18
  Z"
/>
<path fill="#0b0d13" d="
  M 692.19 707.71
  A 0.60 0.59 -44.7 0 1 691.32 707.71
  Q 680.41 695.80 664.70 694.82
  Q 653.13 694.09 644.38 699.13
  Q 634.84 704.63 630.99 714.93
  Q 624.41 732.52 632.38 749.78
  C 639.29 764.76 655.87 769.36 670.97 766.69
  C 679.02 765.27 685.64 760.64 691.45 755.25
  A 0.69 0.68 -43.8 0 1 692.40 755.26
  Q 696.62 759.43 703.57 764.79
  C 706.89 767.35 709.31 769.76 712.76 773.27
  A 0.85 0.84 -52.8 0 0 714.09 773.08
  C 717.98 766.07 720.62 758.07 723.63 750.69
  C 737.71 716.18 747.87 691.77 756.67 668.88
  A 1.26 1.26 0.0 0 1 757.85 668.07
  L 791.48 668.07
  A 0.82 0.82 0.0 0 1 792.24 668.58
  C 802.02 692.73 810.97 713.39 820.19 736.75
  Q 828.75 758.39 839.66 783.30
  C 841.20 786.82 843.29 790.10 844.56 792.86
  A 0.66 0.65 77.5 0 1 843.97 793.79
  L 810.00 793.79
  A 0.98 0.97 -10.5 0 1 809.09 793.17
  Q 804.75 781.84 802.99 777.03
  Q 801.95 774.18 801.16 770.01
  A 1.07 1.07 0.0 0 0 800.11 769.13
  L 749.90 769.13
  A 2.41 2.40 -80.1 0 0 747.64 770.73
  L 739.68 793.08
  A 0.98 0.98 0.0 0 1 738.76 793.73
  L 705.97 793.73
  A 0.52 0.52 0.0 0 1 705.49 793.02
  L 712.53 775.71
  A 0.40 0.40 0.0 0 0 712.12 775.16
  Q 710.71 775.33 710.26 775.76
  C 701.94 783.68 692.78 789.87 681.93 793.18
  Q 677.96 794.39 668.96 796.19
  Q 667.62 796.46 658.63 796.35
  Q 653.12 796.28 648.32 795.19
  C 636.87 792.59 625.42 788.15 616.83 780.85
  C 599.32 765.94 592.72 745.17 595.08 722.42
  C 596.65 707.36 602.61 693.70 614.12 683.48
  C 626.22 672.73 640.21 667.44 656.40 665.93
  C 674.53 664.24 691.62 669.31 705.67 680.64
  Q 709.95 684.10 713.37 687.63
  A 0.83 0.82 50.0 0 1 713.27 688.86
  Q 701.77 697.35 692.19 707.71
  Z
  M 758.77 742.93
  A 0.81 0.81 0.0 0 0 759.53 744.03
  L 789.27 744.08
  A 0.81 0.81 0.0 0 0 790.02 742.99
  L 775.22 703.85
  A 0.81 0.81 0.0 0 0 773.71 703.85
  L 758.77 742.93
  Z"
/>
<path fill="#0b0d13" d="
  M 855.94 757.57
  Q 863.85 762.81 875.92 766.98
  Q 883.82 769.71 890.62 770.03
  C 897.45 770.36 915.01 770.52 916.56 760.42
  C 917.89 751.82 905.83 748.01 899.59 746.56
  Q 893.48 745.14 881.22 742.26
  Q 876.21 741.08 866.79 737.16
  Q 846.03 728.51 847.29 705.02
  Q 847.81 695.38 852.18 687.95
  C 858.98 676.38 872.90 669.13 886.03 666.80
  C 905.48 663.36 925.44 667.14 943.03 675.93
  A 1.68 1.67 28.1 0 1 943.74 678.26
  Q 937.74 688.87 933.52 701.14
  A 0.95 0.94 -63.3 0 1 932.09 701.62
  Q 930.10 700.25 928.51 699.58
  Q 915.86 694.26 903.49 693.14
  C 894.75 692.34 882.70 693.81 879.74 703.16
  C 878.23 707.95 885.10 712.45 888.87 713.90
  Q 891.85 715.05 897.47 716.51
  Q 914.73 721.00 919.40 722.64
  Q 922.32 723.67 929.17 726.91
  C 939.32 731.69 945.56 738.44 947.74 749.85
  Q 948.59 754.34 948.17 757.44
  C 946.70 768.11 944.06 776.58 935.33 783.36
  C 924.54 791.72 912.56 794.79 899.11 795.91
  Q 891.31 796.56 882.45 795.02
  C 872.89 793.35 864.43 791.60 855.90 787.51
  Q 852.48 785.88 846.68 783.39
  A 1.72 1.71 22.8 0 1 845.77 781.17
  L 855.28 757.77
  A 0.45 0.45 0.0 0 1 855.94 757.57
  Z"
/>
<path fill="#0b0d13" d="
  M 1066.06 668.15
  L 1100.09 668.15
  A 1.06 1.05 80.8 0 1 1101.09 668.88
  C 1105.55 682.70 1110.41 695.27 1115.63 710.20
  Q 1120.32 723.60 1121.86 726.90
  Q 1125.73 735.15 1129.25 745.28
  Q 1130.71 749.49 1132.71 752.87
  A 0.71 0.70 -47.9 0 0 1133.96 752.80
  C 1136.95 746.31 1139.55 737.41 1142.48 730.17
  Q 1155.42 698.19 1165.71 668.90
  A 1.20 1.19 9.6 0 1 1166.84 668.10
  L 1196.59 668.10
  A 0.26 0.25 -80.3 0 1 1196.83 668.44
  Q 1179.59 715.50 1159.49 765.45
  Q 1156.24 773.51 1154.29 779.21
  Q 1151.18 788.30 1148.98 793.01
  A 1.34 1.32 -77.3 0 1 1147.78 793.78
  L 1115.31 793.78
  A 2.09 2.09 0.0 0 1 1113.36 792.45
  L 1065.26 669.31
  A 0.86 0.85 -10.5 0 1 1066.06 668.15
  Z"
/>
<path fill="#0b0d13" d="
  M 1050.49 717.21
  A 0.45 0.45 0.0 0 1 1050.94 717.66
  L 1050.94 742.07
  A 0.63 0.62 -90.0 0 1 1050.32 742.70
  L 996.65 742.70
  A 0.99 0.98 0.0 0 0 995.66 743.68
  L 995.66 766.41
  A 0.77 0.77 0.0 0 0 996.43 767.18
  L 1059.28 767.18
  A 0.59 0.59 0.0 0 1 1059.87 767.82
  Q 1058.89 779.59 1059.77 792.83
  A 0.90 0.90 0.0 0 1 1058.87 793.79
  L 962.74 793.79
  A 0.59 0.59 0.0 0 1 962.15 793.20
  L 962.15 668.68
  A 0.61 0.61 0.0 0 1 962.76 668.07
  L 1057.11 668.07
  A 0.51 0.51 0.0 0 1 1057.62 668.58
  L 1057.62 694.63
  A 0.45 0.45 0.0 0 1 1057.17 695.08
  L 996.31 695.08
  A 0.85 0.85 0.0 0 0 995.46 695.93
  L 995.46 716.38
  A 0.84 0.83 0.0 0 0 996.30 717.21
  L 1050.49 717.21
  Z"
/>
<path fill="#0b0d13" d="
  M 1312.80 792.88
  A 0.67 0.66 -11.9 0 1 1312.19 793.81
  L 1279.37 793.81
  A 0.67 0.67 0.0 0 1 1278.74 793.37
  L 1270.51 770.22
  A 1.22 1.21 80.0 0 0 1269.37 769.41
  L 1218.48 769.41
  A 1.03 1.02 9.6 0 0 1217.51 770.09
  L 1209.46 792.70
  A 1.55 1.53 -79.8 0 1 1208.00 793.73
  Q 1193.41 793.70 1181.55 793.78
  C 1180.02 793.79 1178.81 794.14 1177.43 794.29
  A 0.64 0.64 0.0 0 1 1176.76 793.41
  Q 1185.98 769.92 1195.97 744.24
  Q 1205.86 718.83 1211.19 706.68
  Q 1211.22 706.62 1226.85 669.25
  A 1.78 1.76 11.1 0 1 1228.49 668.16
  L 1260.51 668.16
  A 1.16 1.16 0.0 0 1 1261.59 668.89
  C 1272.74 696.31 1283.61 721.71 1294.74 749.93
  Q 1302.19 768.81 1312.80 792.88
  Z
  M 1228.29 743.55
  A 0.33 0.33 0.0 0 0 1228.59 743.99
  L 1259.12 744.05
  A 0.33 0.33 0.0 0 0 1259.43 743.60
  L 1244.24 703.23
  A 0.33 0.33 0.0 0 0 1243.62 703.23
  L 1228.29 743.55
  Z"
/>
<path fill="#f9f5d0" d="
  M 758.77 742.93
  L 773.71 703.85
  A 0.81 0.81 0.0 0 1 775.22 703.85
  L 790.02 742.99
  A 0.81 0.81 0.0 0 1 789.27 744.08
  L 759.53 744.03
  A 0.81 0.81 0.0 0 1 758.77 742.93
  Z"
/>
<path fill="#f9f5d0" d="
  M 1228.29 743.55
  L 1243.62 703.23
  A 0.33 0.33 0.0 0 1 1244.24 703.23
  L 1259.43 743.60
  A 0.33 0.33 0.0 0 1 1259.12 744.05
  L 1228.59 743.99
  A 0.33 0.33 0.0 0 1 1228.29 743.55
  Z"
/>
</svg>
